<?xml version="1.0" encoding="utf-8"?>
<!-- Generator: Adobe Illustrator 25.2.0, SVG Export Plug-In . SVG Version: 6.00 Build 0)  -->
<svg version="1.1" baseProfile="basic" id="Calque_1"
	 xmlns="http://www.w3.org/2000/svg" xmlns:xlink="http://www.w3.org/1999/xlink" x="0px" y="0px" viewBox="0 0 239.7 160.6"
	 xml:space="preserve">
<style type="text/css">
	.st0{fill:none;stroke:#FF0000;stroke-width:2.834646e-02;stroke-miterlimit:10;}
	.st1{fill:none;stroke:#0000FF;stroke-width:2.834646e-02;stroke-miterlimit:10;}
	.st2{fill:none;stroke:#FF0000;stroke-width:2.834646e-02;stroke-linecap:round;stroke-linejoin:round;stroke-miterlimit:10;}
	.st3{fill:none;}
	.st4{fill:#FFFFFF;}
</style>
<path class="st0" d="M231.2,160.6H8.5c-4.7,0-8.5-3.8-8.5-8.5V8.5C0,3.8,3.8,0,8.5,0h222.7c4.7,0,8.5,3.8,8.5,8.5v143.6
	C239.7,156.8,235.9,160.6,231.2,160.6z"/>
<path class="st0" d="M134.1,155.5"/>
<g>
	<path class="st0" d="M120.5,9.2"/>
	<g>
		<path class="st0" d="M180.9,2.8"/>
		<path class="st0" d="M180.9,26.8"/>
	</g>
	<g>
		<polyline class="st0" points="53.2,13.7 53.2,5.5 61.3,5.5 		"/>
		<line class="st1" x1="53.2" y1="15.9" x2="53.2" y2="13.7"/>
		<polyline class="st0" points="61.3,24.1 53.2,24.1 53.2,15.9 		"/>
		<line class="st0" x1="61.3" y1="5.5" x2="61.3" y2="2.8"/>
		<line class="st0" x1="61.3" y1="26.8" x2="61.3" y2="24.1"/>
		<polyline class="st0" points="186.5,13.7 186.5,5.5 178.5,5.5 		"/>
		<line class="st0" x1="186.5" y1="15.9" x2="186.5" y2="13.7"/>
		<polyline class="st0" points="178.5,24.1 186.5,24.1 186.5,15.9 		"/>
		<line class="st0" x1="178.5" y1="5.5" x2="178.5" y2="2.8"/>
		<line class="st0" x1="178.5" y1="26.8" x2="178.5" y2="24.1"/>
	</g>
	<line class="st0" x1="61.3" y1="2.8" x2="178.5" y2="2.8"/>
	<line class="st0" x1="178.5" y1="26.8" x2="61.3" y2="26.8"/>
</g>
<g>
	<path d="M77.9,9.9v1.6h-3.5c-1.8,0-2.5,0.9-2.5,3c0,2.1,0.8,3,2.5,3h3.5V19h-3.5c-2.7,0-4.1-1.5-4.1-4.6c0-3.1,1.5-4.6,4.1-4.6
		H77.9z"/>
	<path d="M81.3,8.7v2.2c0,1.3-0.6,1.9-1.8,1.9h-0.5v-1.2h0.2c0.4,0,0.5-0.2,0.5-0.6V8.7H81.3z"/>
	<path d="M90.1,9.9v1.6h-4.7c-0.8,0-1.2,0.4-1.2,1.1c0,0.6,0.3,1.1,1.4,1.1h2.1c2.5,0,3.1,1.4,3.1,2.7c0,1.5-0.8,2.7-2.9,2.7h-5.1
		v-1.6H88c0.9,0,1.3-0.5,1.3-1.1c0-0.6-0.3-1.1-1.4-1.1h-2.1c-2.4,0-3-1.4-3-2.7c0-1.5,0.8-2.6,2.9-2.6H90.1z"/>
	<path d="M97.1,11.9c1.9,0,3.1,1.2,3.1,3.6S99,19,97.1,19H94v2.9h-1.4v-7c0-2.1,0.9-3.1,2.6-3.1H97.1z M94,17.6h3
		c1.3,0,1.8-0.6,1.8-2.2s-0.5-2.2-1.8-2.2h-1.4c-1.2,0-1.6,0.5-1.6,1.8V17.6z"/>
	<path d="M106.6,11.9c1.8,0,2.5,1,2.5,2.4v3.4c0,1-0.3,1.4-1.5,1.4h-3.4c-1.7,0-2.4-0.8-2.4-2.2c0-1.3,0.7-2.1,2.4-2.1h3.4v-0.5
		c0-0.6-0.3-1-1.1-1h-4.3v-1.4H106.6z M107.6,17.3v-1.3h-3.4c-0.8,0-1,0.3-1,0.8s0.3,0.9,1,0.9h3C107.5,17.6,107.6,17.5,107.6,17.3z
		"/>
	<path d="M117.6,11.9v1.4H114c-1.3,0-1.8,0.7-1.8,2.2s0.5,2.2,1.8,2.2h3.6V19h-3.7c-1.9,0-3.1-1.2-3.1-3.6s1.2-3.6,3.1-3.6H117.6z"
		/>
	<path d="M124,11.9c1.7,0,2.4,0.8,2.4,2.2c0,1.3-0.7,2.1-2.4,2.1h-3.4v0.5c0,0.6,0.3,1,1.1,1h4.4V19h-4.4c-1.8,0-2.5-1-2.5-2.4v-2.4
		c0-1.4,0.7-2.4,2.5-2.4H124z M120.5,15h3.4c0.8,0,1.1-0.3,1.1-0.9c0-0.5-0.3-0.9-1-0.9h-2.3c-0.8,0-1.1,0.4-1.1,1V15z"/>
	<path d="M137.2,9.9c1.8,0,2.8,0.9,2.8,2.6c0,1.4-0.7,2.1-2.1,2.5l-3.8,0.9c-0.6,0.1-0.8,0.5-0.8,1v0.5c0,0.1,0.1,0.2,0.2,0.2h6.3
		V19h-7.3c-0.5,0-0.8-0.2-0.8-0.7v-1.4c0-1.5,0.4-2.3,2-2.6l3.9-0.9c0.7-0.1,0.9-0.5,0.9-0.9c0-0.6-0.4-1-1.1-1H132V9.9H137.2z"/>
	<path d="M149.5,14.4c0,3.1-1.5,4.7-4.1,4.7c-2.7,0-4.1-1.6-4.1-4.7c0-3.1,1.5-4.7,4.1-4.7C148,9.7,149.5,11.4,149.5,14.4z
		 M142.8,14.4c0,2.1,0.8,3.1,2.6,3.1c1.8,0,2.6-1,2.6-3.1c0-2.1-0.8-3.1-2.6-3.1C143.6,11.3,142.8,12.3,142.8,14.4z"/>
	<path d="M156.7,9.9c1.8,0,2.8,0.9,2.8,2.6c0,1.4-0.7,2.1-2.1,2.5l-3.8,0.9c-0.6,0.1-0.8,0.5-0.8,1v0.5c0,0.1,0.1,0.2,0.2,0.2h6.3
		V19h-7.3c-0.5,0-0.8-0.2-0.8-0.7v-1.4c0-1.5,0.4-2.3,2-2.6l3.9-0.9c0.7-0.1,0.9-0.5,0.9-0.9c0-0.6-0.4-1-1.1-1h-5.3V9.9H156.7z"/>
	<path d="M166.7,9.9c1.8,0,2.8,0.9,2.8,2.6c0,1.4-0.7,2.1-2.1,2.5l-3.8,0.9c-0.6,0.1-0.8,0.5-0.8,1v0.5c0,0.1,0.1,0.2,0.2,0.2h6.3
		V19h-7.3c-0.5,0-0.8-0.2-0.8-0.7v-1.4c0-1.5,0.4-2.3,2-2.6l3.9-0.9c0.7-0.1,0.9-0.5,0.9-0.9c0-0.6-0.4-1-1.1-1h-5.3V9.9H166.7z"/>
</g>
<g>
	<line class="st0" x1="119.9" y1="114.7" x2="44.8" y2="114.7"/>
	<line class="st0" x1="44.7" y1="155.5" x2="93.1" y2="155.5"/>
	<g id="LINE_32_">
		<line class="st2" x1="35.6" y1="118.8" x2="35.6" y2="155.5"/>
	</g>
	<g id="LINE_31_">
		<line class="st2" x1="38.5" y1="114.7" x2="38.5" y2="151.4"/>
	</g>
	<g id="LINE_30_">
		<line class="st2" x1="41.4" y1="118.8" x2="41.4" y2="155.5"/>
	</g>
	<g id="LINE_29_">
		<line class="st2" x1="44.3" y1="114.7" x2="44.3" y2="151.4"/>
	</g>
	<g id="LINE_28_">
		<line class="st2" x1="47.3" y1="118.8" x2="47.3" y2="155.5"/>
	</g>
	<g id="LINE_27_">
		<line class="st2" x1="50.1" y1="114.7" x2="50.1" y2="151.4"/>
	</g>
	<g id="LINE_26_">
		<line class="st2" x1="52.9" y1="118.8" x2="52.9" y2="155.5"/>
	</g>
	<g id="LINE_25_">
		<line class="st2" x1="55.7" y1="114.7" x2="55.7" y2="151.4"/>
	</g>
	<g id="LINE_24_">
		<line class="st2" x1="58.9" y1="118.8" x2="58.9" y2="155.5"/>
	</g>
	<g id="LINE_23_">
		<line class="st2" x1="61.8" y1="114.7" x2="61.8" y2="151.4"/>
	</g>
	<g id="LINE_22_">
		<line class="st2" x1="64.8" y1="118.8" x2="64.8" y2="155.5"/>
	</g>
	<g id="LINE_21_">
		<line class="st2" x1="67.7" y1="114.7" x2="67.7" y2="151.4"/>
	</g>
	<g id="LINE_20_">
		<line class="st2" x1="70.9" y1="118.8" x2="70.9" y2="155.5"/>
	</g>
	<g id="LINE_19_">
		<line class="st2" x1="73.7" y1="114.7" x2="73.7" y2="151.4"/>
	</g>
	<g id="LINE_18_">
		<line class="st2" x1="77" y1="118.8" x2="77" y2="155.5"/>
	</g>
	<g id="LINE_17_">
		<line class="st2" x1="79.9" y1="114.7" x2="79.9" y2="151.4"/>
	</g>
	<line class="st0" x1="44.8" y1="114.7" x2="35.6" y2="114.7"/>
	<line class="st0" x1="44.8" y1="155.5" x2="35.6" y2="155.5"/>
	<line class="st0" x1="119.9" y1="114.7" x2="105.9" y2="126.9"/>
	
		<rect x="82.5" y="131.1" transform="matrix(0.7071 -0.7071 0.7071 0.7071 -68.9266 104.7407)" class="st0" width="19" height="8.9"/>
	<line class="st0" x1="112.6" y1="136" x2="105.9" y2="126.9"/>
	<line class="st0" x1="112.6" y1="136" x2="93.1" y2="155.5"/>
</g>
<g>
	<line class="st0" x1="119.9" y1="114.7" x2="195" y2="114.7"/>
	<line class="st0" x1="195" y1="155.5" x2="146.6" y2="155.5"/>
	<g id="LINE_16_">
		<line class="st2" x1="204.1" y1="118.8" x2="204.1" y2="155.5"/>
	</g>
	<g id="LINE_15_">
		<line class="st2" x1="201.3" y1="114.7" x2="201.3" y2="151.4"/>
	</g>
	<g id="LINE_14_">
		<line class="st2" x1="198.3" y1="118.8" x2="198.3" y2="155.5"/>
	</g>
	<g id="LINE_13_">
		<line class="st2" x1="195.4" y1="114.7" x2="195.4" y2="151.4"/>
	</g>
	<g id="LINE_12_">
		<line class="st2" x1="192.5" y1="118.8" x2="192.5" y2="155.5"/>
	</g>
	<g id="LINE_11_">
		<line class="st2" x1="189.6" y1="114.7" x2="189.6" y2="151.4"/>
	</g>
	<g id="LINE_10_">
		<line class="st2" x1="186.9" y1="118.8" x2="186.9" y2="155.5"/>
	</g>
	<g id="LINE_9_">
		<line class="st2" x1="184" y1="114.7" x2="184" y2="151.4"/>
	</g>
	<g id="LINE_8_">
		<line class="st2" x1="180.8" y1="118.8" x2="180.8" y2="155.5"/>
	</g>
	<g id="LINE_7_">
		<line class="st2" x1="178" y1="114.7" x2="178" y2="151.4"/>
	</g>
	<g id="LINE_6_">
		<line class="st2" x1="174.9" y1="118.8" x2="174.9" y2="155.5"/>
	</g>
	<g id="LINE_5_">
		<line class="st2" x1="172" y1="114.7" x2="172" y2="151.4"/>
	</g>
	<g id="LINE_4_">
		<line class="st2" x1="168.9" y1="118.8" x2="168.9" y2="155.5"/>
	</g>
	<g id="LINE_3_">
		<line class="st2" x1="166" y1="114.7" x2="166" y2="151.4"/>
	</g>
	<g id="LINE_2_">
		<line class="st2" x1="162.7" y1="118.8" x2="162.7" y2="155.5"/>
	</g>
	<g id="LINE_1_">
		<line class="st2" x1="159.8" y1="114.7" x2="159.8" y2="151.4"/>
	</g>
	<line class="st0" x1="195" y1="114.7" x2="204.1" y2="114.7"/>
	<line class="st0" x1="195" y1="155.5" x2="204.1" y2="155.5"/>
	<line class="st0" x1="119.9" y1="114.7" x2="133.8" y2="126.9"/>
	
		<rect x="138.2" y="131.1" transform="matrix(-0.7071 -0.7071 0.7071 -0.7071 156.3651 335.9129)" class="st0" width="19" height="8.9"/>
	<line class="st0" x1="127.1" y1="136" x2="133.8" y2="126.9"/>
	<line class="st0" x1="127.1" y1="136" x2="146.6" y2="155.5"/>
</g>
<rect x="3.8" y="29.2" class="st3" width="232.1" height="83.3"/>
<rect x="3.8" y="29.2" class="st3" width="232.1" height="83.3"/>
<rect x="3.8" y="29.2" class="st3" width="232.1" height="83.3"/>
<rect x="3.8" y="29.2" class="st3" width="232.1" height="83.3"/>
<g>
	<g id="Logo_2_">
		<path d="M218,16c-1.7,0-3.6-1.5-3.6-3.9v-8h-0.6v4.2c-2.4,0.5-4.2,2.5-4.2,5c0,2.8,2.5,5.1,5.5,5.1c2.3,0,4.3-1.3,5.1-3.2
			C219.7,15.7,218.8,16,218,16"/>
		<path d="M215.2,8.2c0.2,0,3.1,0,4.7,2.5c0.6,0.8,0,1.9-1.7,1.9C217.6,12.7,215.5,12.1,215.2,8.2"/>
		<path d="M211.5,19.9c-1.4,0-2.9,0.6-2.9,2.7v2.9h1.3v-2.8c0-1.4,0.9-1.8,1.6-1.8c0.7,0,1.6,0.3,1.6,1.8v2.8h1.3v-2.9
			C214.4,20.5,213,19.9,211.5,19.9"/>
		<path d="M202.6,22.8c0,1.3,0.6,2.7,2.7,2.7h2.6v-0.9h-2.3c-1.4,0-1.7-1.1-1.7-1.8c0-0.7,0.3-1.8,1.7-1.8h2.3v-0.9h-2.6
			C203.2,20.1,202.6,21.4,202.6,22.8"/>
		<path d="M219.6,22.4h-3.1c0-0.5,0-1.6,1.5-1.6C219.8,20.7,219.6,22.4,219.6,22.4 M216.5,23.2h4.4c0-0.2,0-0.4,0-0.4
			c0-2.4-1.6-2.9-3-2.9c-2,0-2.8,1.4-2.8,2.8v0.1c0,1.3,0.6,2.7,2.7,2.7h2.9v-0.9h-2.6C217,24.5,216.6,23.9,216.5,23.2"/>
		<path d="M224.9,22.4h-0.7c-0.7,0-1.1-0.2-1.1-0.7c0-0.5,0.3-0.7,1-0.7h2.8v-0.9h-2.8c-1.1,0-2.4,0.2-2.4,1.6
			c0,1.5,1.7,1.5,2.2,1.5h0.7c0.7,0,1.1,0.2,1.1,0.7c0,0.5-0.3,0.7-1,0.7h-2.8v0.9h2.8c1.1,0,2.4-0.2,2.4-1.6
			C227.1,22.3,225.4,22.4,224.9,22.4"/>
	</g>
</g>
<g>
	<g>
		<g>
			<path d="M16.9,12.9c-0.5-0.4-1.1-0.7-1.6-1.1c-0.2-0.2,0-0.4,0-0.6c0.3-1.1,0.7-2,1.3-3c-0.3,0.2-0.7,0.3-0.8,0.7
				c-0.3,0.8-0.7,1.6-1,2.3c-0.2-0.2-0.5-0.4-0.8-0.7c0,0,0,0,0,0c-0.3,0.3-0.3,0.3,0.1,0.7c0.1,0.1,0.3,0.3,0.4,0.4
				c0.3,0.2,0.2,0.4,0.2,0.7c0,0.5-0.1,0.9,0,1.4c0,0.4,0.1,0.9,0.1,1.3c0,0.1,0,0.3,0.1,0.4c0,0,0,0-0.1,0.1
				c-0.7-0.4-1.4-0.9-2.1-1.3c-0.1,0.3-0.1,0.4,0.2,0.6c0.6,0.5,1.3,0.9,2,1.2c0.1,0,0.1,0.1,0.2,0.2c0.3,0.7,0.6,1.4,1,2.1
				c0.2,0.4,0.5,0.7,0.7,1.1c-0.8-0.1-1.5-0.4-2.2-0.7c0.3,0.3,0.5,0.7,1,0.8c0.5,0.1,1,0.3,1.5,0.4c0.1,0,0.3,0.1,0.3,0.2
				c0.6,0.5,1.1,1,1.7,1.4c0.3,0.2,0.7,0.3,1.1,0.5c0.2,0.1,0.5,0.1,0.8,0.2c-1.1-0.6-2.1-1.3-3-2.2c0.2,0,0.4,0.1,0.6,0.1
				c0.2,0,0.4,0,0.5,0c0.2,0,0.3-0.1,0.5,0.1c0.6,0.8,1.3,1.5,2.1,2c0.1,0.1,0.2,0.2,0.4,0.3c0,0,0,0,0,0c-0.2,0.6-0.1,0.5-0.8,0.3
				c-1.4-0.3-2.8-0.8-4.1-1.5c-1.2-0.7-2.3-1.5-3.3-2.6c-0.9-1-1.5-2.2-1.7-3.5c-0.2-1,0-2.1,0.3-3.1c0.3-0.8,0.8-1.6,1.4-2.3
				c1-1.2,2.2-2.1,3.6-2.7c1.3-0.6,2.6-1.1,4-1.3c0.9-0.2,1.9-0.3,2.9-0.3c0.8,0,1.6,0,2.4,0.1c0.4,0,0.8,0.1,1.2,0.2
				c0.1,0,0.1,0.1,0.2,0.2c0,0.1,0,0.2,0,0.3C27.4,6.1,26.7,6.1,26,6c-0.9-0.1-1.8,0-2.7,0.1c-1.4,0.1-2.8,0.4-4.2,0.9
				c-0.5,0.2-0.9,0.4-1.4,0.6c-0.1,0-0.2,0.1-0.2,0.2c-0.3,0.9-0.5,1.8-0.6,2.7c0,0.6-0.1,1.2-0.1,1.7C16.9,12.5,17,12.6,16.9,12.9
				C17,12.8,16.9,12.8,16.9,12.9z"/>
			<path d="M25.7,21.8c0.2,0.3,0.5,0.5,0.6,0.7c0.3,0.4,0.4,0.9,0.2,1.4c0,0.1-0.1,0.1-0.2,0.2c-0.1-0.1-0.2-0.1-0.2-0.2
				c-0.1-0.6-0.5-1-1-1.3c-0.3-0.2-0.5-0.2-0.7,0.2c-0.4,0.7-1,0.9-1.7,1c-0.1,0-0.3,0.1-0.4,0c-0.1,0-0.2-0.1-0.2-0.1
				c0-0.1,0-0.2,0.1-0.2c0.2-0.1,0.4-0.3,0.7-0.4c0.4-0.2,0.9-0.6,0.8-1c0-0.4-0.2-0.7-0.4-1.1c-0.2-0.5-0.6-0.9-0.5-1.5
				c0-0.1,0-0.1,0-0.2c0.1-0.1,0.1-0.2,0.2-0.3c0.1,0.1,0.2,0.2,0.2,0.3c0.2,0.6,0.5,1,0.9,1.4c0.1,0.1,0.3,0.2,0.5,0.2
				c0.8,0.1,1.5-0.1,2.1-0.7c0.1-0.1,0.1-0.1,0.2-0.2c0.1,0,0.1-0.1,0.3-0.2c0,0.2,0,0.3,0,0.4c-0.2,0.6-0.6,0.9-1,1.3
				C25.9,21.6,25.8,21.7,25.7,21.8z"/>
			<path d="M15.2,12.3c0.6,0.3,1.1,0.7,1.7,1c0.1,0,0.2,0.1,0.2,0.2c0.2,0.8,0.3,1.7,0.5,2.5c0,0,0,0.1,0,0.2
				c-0.7-0.2-1.3-0.3-2-0.5c-0.1,0-0.2-0.1-0.2-0.2c-0.3-1-0.2-1.9-0.2-2.9C15.1,12.5,15.1,12.4,15.2,12.3z"/>
			<path d="M15.5,16.3c0.4,0.1,0.9,0.2,1.3,0.2c0.2,0,0.5,0.1,0.7,0.1c0.1,0,0.2,0,0.3,0.2c0.2,0.5,0.4,0.9,0.6,1.4
				c0.2,0.5,0.5,0.9,0.8,1.4c-0.5,0-1.1,0-1.6-0.1c-0.2,0-0.3-0.3-0.5-0.5C16.4,18.1,15.9,17.3,15.5,16.3z"/>
			<path d="M21.3,16.3c-0.3,0-0.6,0-1,0c-0.7-0.1-0.8-0.7-0.5-1.2c0.4-0.7,1.1-0.9,1.8-1.1c0.2,0,0.4,0.1,0.4,0.3
				c0,0.2-0.1,0.3-0.3,0.3c-0.5,0.1-0.9,0.2-1.2,0.7c-0.2,0.3-0.1,0.5,0.3,0.5c0.3,0,0.6,0,0.9,0c0.4,0,0.8,0.2,0.9,0.5
				c0.1,0.4,0,0.7-0.3,1c-0.5,0.4-1,0.6-1.6,0.7c-0.2,0-0.4-0.1-0.4-0.3c0-0.3,0.2-0.3,0.4-0.3c0.3,0,0.5,0,0.8-0.2
				c0.2-0.1,0.3-0.3,0.5-0.4c0.1-0.1,0.1-0.2,0-0.3c0-0.1-0.1-0.1-0.2-0.1C21.6,16.3,21.4,16.3,21.3,16.3z"/>
			<path d="M25.7,11.5c-0.4,0.4-0.9,0.5-1.4,0.4c-0.5-0.2-0.9-0.9-0.8-1.3c0.1-0.8,0.6-1.1,1.2-1.2c0.1,0,0.2,0,0.3,0
				c0.1,0,0.2-0.1,0.2-0.2c0-0.2,0.1-0.3,0.3-0.3c0.2,0,0.3,0.1,0.3,0.3c0.1,0.7,0.3,1.3,0.4,1.9c0,0.1,0,0.1,0,0.2
				c0,0.2,0,0.4-0.2,0.4C25.8,11.9,25.7,11.8,25.7,11.5z M24.9,9.9c-0.5,0-0.8,0.3-0.8,0.7c0,0.4,0.3,0.8,0.7,0.8
				c0.4,0,0.8-0.3,0.7-0.8C25.5,10.1,25.3,9.8,24.9,9.9z"/>
			<path d="M20.1,9.4c0.4,0,0.8,0.1,1,0.5c0.2,0.4,0.1,0.8-0.2,1.2c-0.2,0.2-0.4,0.4-0.6,0.5c-0.2,0.2-0.2,0.4-0.2,0.6
				c0,0.2,0.1,0.4,0.1,0.6c0,0.1,0,0.3-0.1,0.4c0,0.1-0.3,0.1-0.3,0.1c-0.1-0.1-0.2-0.2-0.2-0.4c-0.1-0.7-0.2-1.4-0.3-2.2
				c0-0.2-0.1-0.3-0.2-0.5c-0.2-0.4-0.1-0.7,0.4-0.8C19.7,9.4,19.9,9.4,20.1,9.4z M19.9,11.1c0,0,0.1,0,0.1,0
				c0.1-0.1,0.3-0.3,0.4-0.4c0.2-0.2,0.1-0.5-0.1-0.6c-0.2-0.2-0.6-0.1-0.6,0.1C19.8,10.5,19.9,10.8,19.9,11.1z"/>
			<path d="M31,11.1c-1,0-1.5-0.9-1.3-1.7c0.1-0.7,0.6-1,1.3-1.2c0.3-0.1,0.5,0.1,0.7,0.3c0.2,0.3,0.2,0.6,0,0.8
				c-0.2,0.3-0.5,0.5-0.8,0.7c-0.1,0-0.1,0-0.2,0.1c-0.3,0.1-0.3,0.2,0,0.4c0.3,0.2,0.9,0.1,1.1-0.2c0,0,0.1-0.1,0.1-0.1
				c0.1,0,0.3-0.1,0.3-0.1c0.1,0.1,0.1,0.3,0.1,0.3c-0.2,0.3-0.5,0.5-0.8,0.6C31.2,11,31.1,11.1,31,11.1z M30.2,9.6
				c0.4-0.1,0.7-0.2,0.9-0.5c0.1-0.1,0.1-0.3,0.1-0.3c-0.1-0.1-0.2-0.1-0.3-0.1C30.5,8.7,30.2,9.2,30.2,9.6z"/>
			<path d="M36.2,13.7c0.1,0.3,0.3,0.4,0.6,0.5c0.3,0,0.6-0.1,0.7-0.3c0.1-0.1,0.2-0.2,0.3-0.2c0.1,0,0.2,0.1,0.2,0.3
				c-0.1,0.5-0.5,0.6-0.8,0.7c-0.9,0.2-1.6-0.4-1.7-1.1c-0.1-0.8,0.5-1.6,1.3-1.7c0.3,0,0.5,0.1,0.7,0.3c0.2,0.3,0.2,0.7-0.1,0.9
				c-0.3,0.2-0.6,0.4-0.9,0.6C36.4,13.6,36.3,13.6,36.2,13.7z M36,13.1C36,13.2,36.1,13.2,36,13.1c0.3,0,0.5-0.1,0.7-0.2
				c0.1-0.1,0.2-0.2,0.3-0.3c0-0.1,0-0.3,0-0.3c0-0.1-0.2-0.1-0.3,0C36.3,12.4,36.1,12.7,36,13.1z"/>
			<path d="M35.4,9.1c0.2,0.5,1,0.6,1.3,0C36.8,9.1,36.9,9,37,9c0.1,0,0.2,0.1,0.2,0.2c0,0.1,0,0.2-0.1,0.3
				c-0.4,0.5-0.9,0.6-1.4,0.5c-0.5-0.1-0.7-0.4-0.9-0.8c-0.4-0.8,0.1-1.7,0.9-2c0.4-0.1,0.7-0.1,0.9,0.2c0.2,0.3,0.2,0.7-0.2,1
				C36.1,8.7,35.7,8.9,35.4,9.1z M35.3,8.6C35.7,8.5,36,8.3,36.2,8c0-0.1,0-0.2,0-0.2c-0.1-0.1-0.2-0.1-0.3-0.1
				c-0.4,0.1-0.6,0.4-0.7,0.8C35.2,8.5,35.2,8.5,35.3,8.6z"/>
			<path d="M27.8,15.4c0,0.3,0.4,0.6,0.7,0.5c0.3-0.1,0.5-0.1,0.7-0.4c0.1-0.2,0.2-0.2,0.4-0.1c0.2,0.1,0.1,0.3,0,0.4
				c-0.3,0.4-0.8,0.6-1.3,0.5c-0.5,0-0.9-0.4-1.1-0.9c-0.4-1,0.2-1.9,1.2-2c0.3,0,0.5,0,0.6,0.3c0.2,0.3,0.2,0.6,0,0.8
				c-0.2,0.3-0.5,0.5-0.9,0.7C28,15.4,27.9,15.4,27.8,15.4z M28.7,14.3c0-0.3-0.1-0.4-0.3-0.3c-0.3,0-0.7,0.5-0.7,0.8
				c0,0.2,0.1,0.3,0.2,0.2c0.3-0.1,0.5-0.3,0.7-0.5C28.6,14.5,28.6,14.4,28.7,14.3z"/>
			<path d="M27.1,9.1c0.2-0.1,0.4-0.2,0.6-0.3c0.6-0.3,1.2,0,1.3,0.6c0.1,0.4,0.2,0.9,0.3,1.3c0,0.1-0.1,0.3-0.2,0.3
				c-0.1,0.1-0.3,0-0.4-0.2c0-0.2,0-0.4-0.1-0.6c0-0.3-0.1-0.5-0.2-0.8c-0.1-0.3-0.2-0.4-0.6-0.3c-0.5,0.1-0.7,0.5-0.7,0.7
				c0,0.2,0.1,0.5,0.1,0.7c0,0.2,0.1,0.4,0.1,0.7c0,0.2-0.1,0.3-0.3,0.3c-0.2,0-0.3-0.1-0.3-0.3c-0.1-0.6-0.2-1.2-0.4-1.8
				c0-0.2-0.1-0.4-0.1-0.7c0-0.1,0.2-0.3,0.3-0.3c0.1,0,0.3,0,0.3,0.2C27.1,8.9,27.1,9,27.1,9.1z"/>
			<path d="M30.2,13.3c0.2-0.1,0.4-0.2,0.6-0.3c0.4-0.2,0.7-0.2,1,0.1c0.2,0.2,0.3,0.5,0.4,0.8c0.1,0.4,0.2,0.7,0.2,1.1
				c0,0.1-0.1,0.3-0.2,0.4s-0.3-0.1-0.4-0.2c-0.1-0.2-0.1-0.4-0.1-0.6c0-0.3-0.1-0.6-0.2-0.9c-0.1-0.2-0.3-0.3-0.5-0.3
				c-0.5,0.1-0.8,0.4-0.8,0.7c0,0.3,0.1,0.5,0.1,0.8c0,0.2,0.1,0.4,0.1,0.7c0,0.2-0.1,0.3-0.3,0.3c-0.2,0-0.3-0.1-0.3-0.3
				c-0.1-0.6-0.2-1.2-0.4-1.8c0-0.2-0.1-0.4-0.1-0.7c0-0.1,0.1-0.3,0.3-0.3c0.2,0,0.3,0.1,0.3,0.3C30.1,13.1,30.2,13.2,30.2,13.3z"
				/>
			<path d="M39.9,11.3c0,0.3-0.1,0.3-0.3,0.3c-0.3,0-0.6,0.1-0.8,0.3c-0.2,0.2-0.1,0.3,0.1,0.4c0.3,0.1,0.5,0.1,0.8,0.1
				c0.3,0.1,0.5,0.2,0.6,0.5c0,0.3,0,0.7-0.3,0.8c-0.4,0.2-0.7,0.3-1.1,0.4c-0.2,0.1-0.4-0.1-0.4-0.3c0-0.2,0.1-0.3,0.3-0.3
				c0.3,0.1,0.6-0.1,0.9-0.3c0.2-0.1,0.1-0.3-0.1-0.4c-0.2-0.1-0.5-0.1-0.7-0.1c-0.3,0-0.6-0.2-0.7-0.4c-0.1-0.2,0.1-0.7,0.3-0.8
				c0.3-0.3,0.7-0.4,1.1-0.5C39.8,11,39.9,11.2,39.9,11.3z"/>
			<path d="M34.2,15.1c-0.6,0-1-0.2-1.3-0.7c-0.3-0.6-0.1-1.1,0.3-1.5c0.3-0.4,0.7-0.6,1.2-0.7c0.2,0,0.4,0,0.4,0.2
				c0.1,0.2-0.1,0.4-0.3,0.4c-0.7,0.1-0.9,0.3-1.1,1c-0.1,0.4,0.2,0.8,0.6,0.8c0.3,0,0.6,0,0.8-0.3c0.1-0.2,0.5-0.2,0.6,0
				c0.1,0.2,0.1,0.3-0.2,0.5C34.9,15,34.5,15.1,34.2,15.1z"/>
			<path d="M33.7,10.6c-0.5,0-0.8-0.3-0.9-0.7c-0.1-0.3-0.1-0.7-0.2-1c0-0.2-0.1-0.3-0.4-0.3c-0.1,0-0.2-0.1-0.2-0.2
				c0-0.1,0.1-0.2,0.1-0.3c0.2-0.1,0.3-0.2,0.2-0.4c0-0.1,0-0.2,0-0.2c0.1-0.1,0.1-0.2,0.3-0.3c0,0,0.2,0.1,0.2,0.2c0,0,0,0.1,0,0.1
				C32.9,7.9,33,8,33.3,7.8c0.1-0.1,0.3-0.1,0.5-0.1c0.2-0.1,0.3,0,0.4,0.2C34.2,8,34.1,8.1,34,8.2c-0.2,0.1-0.3,0.1-0.5,0.1
				C33,8.4,33,8.4,33.1,8.8c0,0.3,0.1,0.6,0.2,0.9c0.1,0.3,0.3,0.4,0.6,0.2c0.1,0,0.1-0.1,0.2-0.1c0.1,0,0.3,0,0.4,0.1
				c0.1,0.1,0.1,0.3,0,0.3C34.1,10.4,33.8,10.6,33.7,10.6z"/>
			<path d="M24.3,17.2c-0.5,0-1-0.2-1.2-0.7C22.9,16,23,15.4,23.4,15c0.3-0.4,0.7-0.7,1.3-0.8c0.2,0,0.4,0,0.4,0.2
				c0.1,0.2-0.1,0.4-0.3,0.4c-0.6,0-0.9,0.3-1.1,0.9c-0.1,0.5,0.2,1,0.8,0.9c0.2,0,0.4-0.2,0.6-0.3c0.1,0,0.1-0.1,0.2-0.1
				c0.2,0,0.3,0,0.4,0.2c0,0.1,0,0.3-0.1,0.3C25.3,17,24.8,17.2,24.3,17.2z"/>
			<path d="M22.7,12.3c0.2-0.1,0.3-0.2,0.4-0.3c0.1-0.1,0.3-0.2,0.4,0c0.1,0.1,0.2,0.3,0,0.4c-0.3,0.2-0.5,0.5-0.9,0.4
				c-0.4-0.1-0.5-0.4-0.6-0.8c-0.2-1-0.4-2-0.6-3c0-0.2,0-0.3,0.2-0.4c0.2,0,0.3,0.1,0.3,0.3c0.2,1,0.3,1.9,0.5,2.9
				C22.5,11.9,22.6,12.1,22.7,12.3z"/>
			<path d="M26.3,16.9c-0.2,0-0.3-0.2-0.3-0.4c0-0.7-0.2-1.4-0.3-2c0-0.1,0.1-0.2,0.1-0.4c0.1,0,0.3,0.1,0.3,0.2
				c0.1,0.2,0.1,0.5,0.2,0.7c0.1,0.5,0.2,1,0.3,1.5C26.7,16.8,26.6,16.9,26.3,16.9z"/>
			<path d="M30.8,6.9c-0.6-0.2-1.1-0.3-1.6-0.4c-0.4-0.1-0.4-0.1-0.4-0.7c0.6,0.2,1.3,0.4,1.9,0.6c0.1,0,0.1,0.1,0.1,0.2
				C30.8,6.7,30.8,6.8,30.8,6.9z"/>
			<path d="M25.4,20c0,0.3-0.2,0.5-0.5,0.5c-0.3,0-0.6-0.3-0.6-0.6c0-0.3,0.2-0.6,0.5-0.6C25.1,19.3,25.4,19.5,25.4,20z"/>
			<path d="M25.7,13c0.3,0,0.4,0.2,0.4,0.4c0,0.2-0.1,0.4-0.4,0.3c-0.2,0-0.4-0.2-0.4-0.4C25.4,13.1,25.5,13,25.7,13z"/>
			<path class="st4" d="M24.9,9.9c0.4-0.1,0.6,0.3,0.6,0.7c0,0.5-0.3,0.8-0.7,0.8c-0.3,0-0.7-0.4-0.7-0.8
				C24.1,10.2,24.4,9.9,24.9,9.9z"/>
			<path class="st4" d="M19.9,11.1c-0.1-0.3-0.1-0.6-0.2-0.9c0-0.2,0.4-0.3,0.6-0.1c0.2,0.2,0.2,0.4,0.1,0.6
				c-0.1,0.2-0.3,0.3-0.4,0.4C20,11.1,20,11.1,19.9,11.1z"/>
			<path class="st4" d="M30.2,9.6c-0.1-0.4,0.3-0.9,0.6-1c0.1,0,0.3,0,0.3,0.1c0,0.1,0,0.2-0.1,0.3C30.9,9.4,30.6,9.5,30.2,9.6z"/>
			<path class="st4" d="M36,13.1c0.1-0.4,0.2-0.7,0.7-0.9c0.1,0,0.3,0,0.3,0c0.1,0.1,0.1,0.2,0,0.3c0,0.1-0.2,0.2-0.3,0.3
				C36.5,13,36.3,13.1,36,13.1C36.1,13.2,36,13.2,36,13.1z"/>
			<path class="st4" d="M35.3,8.6c0-0.1-0.1-0.1-0.1-0.2c0.1-0.4,0.3-0.7,0.7-0.8c0.1,0,0.2,0,0.3,0.1c0,0,0.1,0.2,0,0.2
				C36,8.3,35.7,8.5,35.3,8.6z"/>
			<path class="st4" d="M28.7,14.3c0,0,0,0.2-0.1,0.2c-0.2,0.2-0.5,0.3-0.7,0.5c-0.1,0.1-0.2,0-0.2-0.2c0-0.3,0.4-0.8,0.7-0.8
				C28.5,14,28.6,14.1,28.7,14.3z"/>
		</g>
	</g>
</g>
<g>
</g>
<g>
</g>
<g>
</g>
<g>
</g>
<g>
</g>
<g>
</g>
</svg>
