<?xml version="1.0" encoding="utf-8"?>
<!-- Generator: Adobe Illustrator 25.2.0, SVG Export Plug-In . SVG Version: 6.00 Build 0)  -->
<svg version="1.1" baseProfile="basic" id="Calque_1"
	 xmlns="http://www.w3.org/2000/svg" xmlns:xlink="http://www.w3.org/1999/xlink" x="0px" y="0px" viewBox="0 0 423.1 283.5"
	 xml:space="preserve">
<style type="text/css">
	.st0{fill:none;stroke:#FF0000;stroke-width:2.834646e-02;stroke-miterlimit:10;}
	.st1{fill:none;stroke:#0000FF;stroke-width:2.834646e-02;stroke-miterlimit:10;}
	.st2{fill:none;stroke:#FF0000;stroke-width:2.834646e-02;stroke-linecap:round;stroke-linejoin:round;stroke-miterlimit:10;}
	.st3{fill:none;}
	.st4{fill:#FFFFFF;}
</style>
<path class="st0" d="M414.6,283.5H8.5c-4.7,0-8.5-3.8-8.5-8.5V8.5C0,3.8,3.8,0,8.5,0h406.1c4.7,0,8.5,3.8,8.5,8.5V275
	C423.1,279.7,419.3,283.5,414.6,283.5z"/>
<path class="st0" d="M236.7,274.5"/>
<g>
	<path class="st0" d="M212.6,16.2"/>
	<path class="st0" d="M329.5,43.2"/>
	<path class="st0" d="M329.5,11.4"/>
	<g>
		<polyline class="st0" points="323.2,43.1 344.4,43.1 344.4,9.1 323.2,9.1 		"/>
		<line class="st0" x1="323.2" y1="9.1" x2="323.2" y2="4.9"/>
		<line class="st0" x1="323.2" y1="47.4" x2="323.2" y2="43.1"/>
	</g>
	<g>
		<polyline class="st0" points="78.6,24 78.6,9.1 99.9,9.1 		"/>
		<line class="st1" x1="78.6" y1="28.3" x2="78.6" y2="24"/>
		<polyline class="st0" points="99.9,43.1 78.6,43.1 78.6,28.3 		"/>
		<line class="st0" x1="99.9" y1="9.1" x2="99.9" y2="4.9"/>
		<line class="st0" x1="99.9" y1="47.4" x2="99.9" y2="43.1"/>
	</g>
	<line class="st0" x1="99.9" y1="4.9" x2="323.2" y2="4.9"/>
	<line class="st0" x1="323.2" y1="47.4" x2="99.9" y2="47.4"/>
</g>
<g>
	<path d="M137.5,17.4v2.8h-6.3c-3.1,0-4.5,1.6-4.5,5.3c0,3.7,1.3,5.3,4.5,5.3h6.3v2.8h-6.3c-4.7,0-7.3-2.7-7.3-8.1
		c0-5.4,2.6-8.1,7.3-8.1H137.5z"/>
	<path d="M143.6,15.4v3.9c0,2.3-1,3.4-3.1,3.4h-0.8v-2.1h0.3c0.6,0,0.9-0.3,0.9-1v-4.2H143.6z"/>
	<path d="M159.2,17.4v2.8h-8.3c-1.5,0-2.1,0.8-2.1,1.9c0,1,0.5,1.9,2.4,1.9h3.8c4.4,0,5.4,2.4,5.4,4.8c0,2.7-1.5,4.8-5.2,4.8h-9
		v-2.8h9.1c1.5,0,2.2-0.8,2.2-2c0-1.1-0.6-2-2.5-2h-3.8c-4.3,0-5.3-2.4-5.3-4.7c0-2.7,1.4-4.7,5-4.7H159.2z"/>
	<path d="M171.5,20.9c3.4,0,5.5,2.1,5.5,6.3s-2.1,6.3-5.5,6.3h-5.6v5.1h-2.5V26.3c0-3.6,1.6-5.4,4.7-5.4H171.5z M165.9,31.1h5.4
		c2.2,0,3.2-1.1,3.2-3.9s-1-3.9-3.2-3.9h-2.5c-2.1,0-2.9,0.9-2.9,3.1V31.1z"/>
	<path d="M188.1,20.9c3.2,0,4.4,1.8,4.4,4.2v6c0,1.8-0.5,2.5-2.6,2.5H184c-3,0-4.2-1.5-4.2-3.9c0-2.3,1.2-3.6,4.3-3.6h6v-1
		c0-1-0.6-1.8-1.9-1.8h-7.6v-2.4H188.1z M190.1,30.5v-2.4h-6c-1.3,0-1.8,0.6-1.8,1.5s0.5,1.5,1.8,1.5h5.3
		C189.9,31.1,190.1,30.9,190.1,30.5z"/>
	<path d="M207.6,20.9v2.4h-6.3c-2.2,0-3.2,1.2-3.2,3.9s1,3.9,3.2,3.9h6.3v2.5h-6.5c-3.4,0-5.5-2.1-5.5-6.3s2.1-6.3,5.5-6.3H207.6z"
		/>
	<path d="M218.9,20.9c3,0,4.3,1.4,4.3,3.9c0,2.3-1.2,3.6-4.3,3.6h-6v0.9c0,1,0.6,1.8,1.9,1.8h7.8v2.5h-7.8c-3.2,0-4.4-1.8-4.4-4.2
		v-4.3c0-2.4,1.2-4.2,4.4-4.2H218.9z M212.8,26.5h6c1.4,0,1.9-0.6,1.9-1.5c0-1-0.6-1.6-1.8-1.6h-4.1c-1.4,0-1.9,0.8-1.9,1.8V26.5z"
		/>
	<path d="M242.3,17.4c3.1,0,4.9,1.6,4.9,4.6c0,2.4-1.2,3.7-3.8,4.3l-6.7,1.5c-1.1,0.3-1.3,0.9-1.3,1.8v0.8c0,0.3,0.1,0.3,0.3,0.3
		h11.1v2.8h-12.9c-0.9,0-1.3-0.4-1.3-1.3v-2.4c0-2.6,0.8-4,3.6-4.7l6.8-1.6c1.2-0.3,1.5-0.8,1.5-1.6c0-1.1-0.7-1.8-2-1.8H233v-2.8
		H242.3z"/>
	<path d="M264,25.5c0,5.4-2.6,8.3-7.3,8.3c-4.7,0-7.3-2.9-7.3-8.3c0-5.4,2.6-8.4,7.3-8.4C261.3,17.1,264,20,264,25.5z M252.1,25.5
		c0,3.7,1.4,5.5,4.5,5.5c3.2,0,4.5-1.8,4.5-5.5c0-3.7-1.4-5.5-4.5-5.5C253.5,20,252.1,21.8,252.1,25.5z"/>
	<path d="M276.6,17.4c3.1,0,4.9,1.6,4.9,4.6c0,2.4-1.2,3.7-3.8,4.3l-6.7,1.5c-1.1,0.3-1.3,0.9-1.3,1.8v0.8c0,0.3,0.1,0.3,0.3,0.3
		h11.1v2.8h-12.9c-0.9,0-1.3-0.4-1.3-1.3v-2.4c0-2.6,0.8-4,3.6-4.7l6.8-1.6c1.2-0.3,1.5-0.8,1.5-1.6c0-1.1-0.7-1.8-2-1.8h-9.4v-2.8
		H276.6z"/>
	<path d="M294.2,17.4c3.1,0,4.9,1.6,4.9,4.6c0,2.4-1.2,3.7-3.8,4.3l-6.7,1.5c-1.1,0.3-1.3,0.9-1.3,1.8v0.8c0,0.3,0.1,0.3,0.3,0.3
		h11.1v2.8h-12.9c-0.9,0-1.3-0.4-1.3-1.3v-2.4c0-2.6,0.8-4,3.6-4.7l6.8-1.6c1.2-0.3,1.5-0.8,1.5-1.6c0-1.1-0.7-1.8-2-1.8H285v-2.8
		H294.2z"/>
</g>
<g>
	<line class="st0" x1="211.5" y1="202.6" x2="353.1" y2="202.6"/>
	<line class="st0" x1="353.1" y1="274.7" x2="267" y2="274.7"/>
	<g id="LINE_16_">
		<line class="st2" x1="369.3" y1="209.8" x2="369.3" y2="274.7"/>
	</g>
	<g id="LINE_15_">
		<line class="st2" x1="365.2" y1="202.6" x2="365.2" y2="267.5"/>
	</g>
	<g id="LINE_14_">
		<line class="st2" x1="360.9" y1="209.8" x2="360.9" y2="274.7"/>
	</g>
	<g id="LINE_13_">
		<line class="st2" x1="356.8" y1="202.6" x2="356.8" y2="267.5"/>
	</g>
	<g id="LINE_12_">
		<line class="st2" x1="352.6" y1="209.8" x2="352.6" y2="274.7"/>
	</g>
	<g id="LINE_11_">
		<line class="st2" x1="348.5" y1="202.6" x2="348.5" y2="267.5"/>
	</g>
	<g id="LINE_10_">
		<line class="st2" x1="344.6" y1="209.8" x2="344.6" y2="274.7"/>
	</g>
	<g id="LINE_9_">
		<line class="st2" x1="340.5" y1="202.6" x2="340.5" y2="267.5"/>
	</g>
	<g id="LINE_8_">
		<line class="st2" x1="335.9" y1="209.8" x2="335.9" y2="274.7"/>
	</g>
	<g id="LINE_7_">
		<line class="st2" x1="331.8" y1="202.6" x2="331.8" y2="267.5"/>
	</g>
	<g id="LINE_6_">
		<line class="st2" x1="327.4" y1="209.8" x2="327.4" y2="274.7"/>
	</g>
	<g id="LINE_5_">
		<line class="st2" x1="323.3" y1="202.6" x2="323.3" y2="267.5"/>
	</g>
	<g id="LINE_4_">
		<line class="st2" x1="318.8" y1="209.8" x2="318.8" y2="274.7"/>
	</g>
	<g id="LINE_3_">
		<line class="st2" x1="314.7" y1="202.6" x2="314.7" y2="267.5"/>
	</g>
	<g id="LINE_2_">
		<line class="st2" x1="310" y1="209.8" x2="310" y2="274.7"/>
	</g>
	<g id="LINE_1_">
		<line class="st2" x1="305.9" y1="202.6" x2="305.9" y2="267.5"/>
	</g>
	<line class="st0" x1="353.1" y1="202.6" x2="369.3" y2="202.6"/>
	<line class="st0" x1="353.1" y1="274.7" x2="369.3" y2="274.7"/>
	<line class="st0" x1="211.5" y1="202.6" x2="236.6" y2="224.6"/>
	
		<rect x="266.8" y="243.1" transform="matrix(-0.7071 -0.7071 0.7071 -0.7071 309.6093 623.2908)" class="st0" width="34.2" height="8.8"/>
	<line class="st0" x1="227.9" y1="235.6" x2="236.6" y2="224.6"/>
	<line class="st0" x1="227.9" y1="235.6" x2="267" y2="274.7"/>
</g>
<g>
	<line class="st0" x1="211.5" y1="202.6" x2="70" y2="202.6"/>
	<line class="st0" x1="70" y1="274.7" x2="156" y2="274.7"/>
	<g id="LINE_32_">
		<line class="st2" x1="53.8" y1="209.8" x2="53.8" y2="274.7"/>
	</g>
	<g id="LINE_31_">
		<line class="st2" x1="57.9" y1="202.6" x2="57.9" y2="267.5"/>
	</g>
	<g id="LINE_30_">
		<line class="st2" x1="62.1" y1="209.8" x2="62.1" y2="274.7"/>
	</g>
	<g id="LINE_29_">
		<line class="st2" x1="66.2" y1="202.6" x2="66.2" y2="267.5"/>
	</g>
	<g id="LINE_28_">
		<line class="st2" x1="70.5" y1="209.8" x2="70.5" y2="274.7"/>
	</g>
	<g id="LINE_27_">
		<line class="st2" x1="74.6" y1="202.6" x2="74.6" y2="267.5"/>
	</g>
	<g id="LINE_26_">
		<line class="st2" x1="78.5" y1="209.8" x2="78.5" y2="274.7"/>
	</g>
	<g id="LINE_25_">
		<line class="st2" x1="82.6" y1="202.6" x2="82.6" y2="267.5"/>
	</g>
	<g id="LINE_24_">
		<line class="st2" x1="87.1" y1="209.8" x2="87.1" y2="274.7"/>
	</g>
	<g id="LINE_23_">
		<line class="st2" x1="91.2" y1="202.6" x2="91.2" y2="267.5"/>
	</g>
	<g id="LINE_22_">
		<line class="st2" x1="95.6" y1="209.8" x2="95.6" y2="274.7"/>
	</g>
	<g id="LINE_21_">
		<line class="st2" x1="99.7" y1="202.6" x2="99.7" y2="267.5"/>
	</g>
	<g id="LINE_20_">
		<line class="st2" x1="104.3" y1="209.8" x2="104.3" y2="274.7"/>
	</g>
	<g id="LINE_19_">
		<line class="st2" x1="108.4" y1="202.6" x2="108.4" y2="267.5"/>
	</g>
	<g id="LINE_18_">
		<line class="st2" x1="113.1" y1="209.8" x2="113.1" y2="274.7"/>
	</g>
	<g id="LINE_17_">
		<line class="st2" x1="117.2" y1="202.6" x2="117.2" y2="267.5"/>
	</g>
	<line class="st0" x1="70" y1="202.6" x2="53.8" y2="202.6"/>
	<line class="st0" x1="70" y1="274.7" x2="53.8" y2="274.7"/>
	<line class="st0" x1="211.5" y1="202.6" x2="186.4" y2="224.6"/>
	
		<rect x="122.1" y="243.1" transform="matrix(0.7071 -0.7071 0.7071 0.7071 -134.2656 170.9005)" class="st0" width="34.2" height="8.8"/>
	<line class="st0" x1="195.1" y1="235.6" x2="186.4" y2="224.6"/>
	<line class="st0" x1="195.1" y1="235.6" x2="156" y2="274.7"/>
</g>
<rect x="6.8" y="51.5" class="st3" width="409.6" height="147"/>
<rect x="6.8" y="51.5" class="st3" width="409.6" height="147"/>
<g>
	<g id="Logo_1_">
		<path d="M383.7,28c-2.7,0-5.7-2.4-5.7-6.2V9.1h-0.9v6.7c-3.9,0.8-6.8,4.1-6.8,7.9c0,4.5,3.9,8.1,8.8,8.1c3.7,0,6.8-2.1,8.1-5.1
			C386.4,27.5,385,28,383.7,28"/>
		<path d="M379.2,15.6c0.4,0,4.9,0,7.5,4c0.9,1.3,0,3-2.6,3.1C383.1,22.8,379.7,21.9,379.2,15.6"/>
		<path d="M373.4,34.3c-2.3,0-4.6,0.9-4.6,4.3v4.6h2v-4.5c0-2.3,1.5-2.8,2.5-2.8s2.5,0.5,2.5,2.8v4.5h2v-4.6
			C378,35.2,375.7,34.3,373.4,34.3"/>
		<path d="M359.2,38.8c0,2.1,0.9,4.3,4.3,4.3h4.1v-1.5H364c-2.3,0-2.7-1.7-2.7-2.8c0-1,0.4-2.8,2.7-2.8h3.6v-1.5h-4.1
			C360.1,34.5,359.2,36.7,359.2,38.8"/>
		<path d="M386.2,38.2h-4.9c0-0.7,0-2.6,2.4-2.6C386.6,35.6,386.2,38.2,386.2,38.2 M381.3,39.5h7c0-0.2,0-0.6,0-0.6
			c0-3.8-2.5-4.6-4.8-4.6c-3.2,0-4.4,2.3-4.4,4.4v0.1c0,2.1,0.9,4.3,4.3,4.3h4.6v-1.5H384C382.1,41.6,381.5,40.5,381.3,39.5"/>
		<path d="M394.7,38.1h-1.1c-1.1,0-1.7-0.3-1.7-1.1c0-0.7,0.5-1,1.6-1h4.5v-1.5h-4.4c-1.8,0-3.9,0.3-3.9,2.5c0,2.4,2.7,2.4,3.5,2.4
			h1.1c1.1,0,1.7,0.3,1.7,1.1c0,0.7-0.5,1-1.6,1h-4.5v1.5h4.4c1.8,0,3.9-0.3,3.9-2.5C398.2,38.1,395.5,38.1,394.7,38.1"/>
	</g>
</g>
<g>
	<g>
		<g>
			<path d="M28.8,22.6c-1-0.6-1.9-1.3-2.9-2c-0.4-0.3-0.1-0.7,0-1c0.5-1.9,1.3-3.7,2.4-5.4c-0.6,0.3-1.3,0.5-1.5,1.2
				c-0.6,1.4-1.2,2.9-1.8,4.2c-0.4-0.3-0.9-0.8-1.5-1.2c0,0,0,0,0,0C23,19,23,19,23.6,19.6c0.3,0.3,0.5,0.6,0.8,0.8
				c0.5,0.3,0.4,0.8,0.4,1.3c0,0.9-0.1,1.7-0.1,2.6c0,0.8,0.1,1.6,0.2,2.3c0,0.2,0.1,0.5,0.1,0.8c0,0-0.1,0.1-0.1,0.1
				c-1.3-0.8-2.5-1.6-3.8-2.4c-0.2,0.5-0.1,0.8,0.3,1.1c1.1,0.9,2.3,1.6,3.6,2.1c0.1,0,0.3,0.2,0.3,0.3c0.6,1.3,1.1,2.5,1.8,3.8
				c0.3,0.7,0.9,1.3,1.4,2c-1.4-0.2-2.7-0.7-4-1.3c0.5,0.6,1,1.3,1.8,1.5c0.9,0.3,1.8,0.5,2.8,0.7c0.2,0.1,0.5,0.2,0.6,0.3
				c1,0.9,2,1.8,3.1,2.6c0.6,0.4,1.4,0.6,2.1,0.9c0.4,0.2,0.9,0.2,1.4,0.3c-2-1-3.8-2.3-5.6-4c0.4,0,0.7,0.1,1,0.1c0.3,0,0.6,0,1,0
				s0.6-0.1,0.9,0.3c1.1,1.4,2.3,2.7,3.9,3.6c0.2,0.1,0.4,0.4,0.7,0.6c0,0,0,0.1,0,0.1c-0.4,1-0.2,0.9-1.4,0.6
				c-2.6-0.5-5.1-1.5-7.5-2.7c-2.3-1.2-4.3-2.8-6-4.7c-1.6-1.8-2.7-4-3.1-6.5c-0.3-1.9,0-3.8,0.6-5.6c0.6-1.5,1.4-2.9,2.5-4.2
				c1.8-2.2,4.1-3.8,6.6-5c2.3-1.2,4.8-2,7.4-2.4c1.7-0.3,3.5-0.6,5.2-0.6c1.5,0,3,0,4.5,0.1c0.7,0,1.4,0.2,2.2,0.3
				c0.1,0,0.3,0.2,0.3,0.3c0,0.2,0,0.4,0,0.6c-1.3-0.1-2.6-0.2-3.9-0.3c-1.6-0.2-3.2,0-4.9,0.1c-2.6,0.2-5.1,0.8-7.6,1.7
				c-0.8,0.3-1.7,0.7-2.5,1c-0.1,0.1-0.3,0.2-0.3,0.4c-0.6,1.6-0.9,3.3-1.1,5c-0.1,1.1-0.1,2.1-0.2,3.2c0,0.3,0.1,0.7,0.1,1
				C28.9,22.5,28.8,22.5,28.8,22.6z"/>
			<path d="M44.8,38.9c0.4,0.5,0.8,0.9,1.1,1.3c0.5,0.8,0.6,1.6,0.4,2.5c0,0.1-0.2,0.2-0.4,0.4c-0.1-0.1-0.4-0.3-0.4-0.4
				c-0.2-1.1-0.9-1.9-1.8-2.5c-0.6-0.3-0.9-0.3-1.3,0.3c-0.7,1.2-1.8,1.6-3.1,1.8c-0.2,0-0.5,0.1-0.7,0.1c-0.1,0-0.4-0.1-0.4-0.2
				c0-0.1,0-0.4,0.1-0.4c0.4-0.3,0.8-0.5,1.2-0.7c0.8-0.4,1.6-1,1.5-1.7c-0.1-0.7-0.4-1.4-0.7-2c-0.4-0.9-1-1.7-0.9-2.8
				c0-0.1,0-0.2,0.1-0.3c0.1-0.2,0.3-0.3,0.4-0.5c0.1,0.2,0.3,0.3,0.3,0.5c0.3,1,0.9,1.8,1.7,2.5c0.2,0.2,0.6,0.3,0.9,0.3
				c1.5,0.2,2.8-0.2,3.9-1.3c0.1-0.1,0.2-0.2,0.3-0.3c0.1-0.1,0.2-0.1,0.5-0.3c0,0.3,0,0.5,0,0.7c-0.3,1-1.2,1.6-1.9,2.3
				C45.3,38.6,45,38.7,44.8,38.9z"/>
			<path d="M25.6,21.5c1,0.6,2.1,1.2,3.1,1.9c0.1,0.1,0.3,0.2,0.3,0.4c0.3,1.5,0.6,3.1,0.9,4.6c0,0.1,0,0.1,0,0.3
				c-1.3-0.3-2.5-0.6-3.6-0.9c-0.2,0-0.4-0.3-0.4-0.4c-0.5-1.7-0.4-3.5-0.4-5.3C25.5,21.9,25.5,21.7,25.6,21.5z"/>
			<path d="M26.3,28.8c0.8,0.1,1.6,0.3,2.3,0.4c0.4,0.1,0.8,0.1,1.3,0.2c0.2,0,0.4,0.1,0.5,0.3c0.3,0.9,0.6,1.7,1,2.6
				c0.4,0.8,0.9,1.6,1.4,2.6c-1,0-1.9,0-2.9-0.2c-0.3-0.1-0.6-0.6-0.9-0.9C27.9,32.2,26.9,30.6,26.3,28.8z"/>
			<path d="M36.8,28.9c-0.6,0-1.2,0.1-1.7,0c-1.2-0.2-1.4-1.3-0.9-2.2c0.7-1.2,1.9-1.7,3.2-2c0.3-0.1,0.6,0.2,0.7,0.6
				c0,0.4-0.2,0.5-0.6,0.6c-0.9,0.1-1.7,0.4-2.1,1.2C35,27.7,35.1,28,35.7,28c0.5,0,1.1-0.1,1.7-0.1c0.7,0,1.5,0.4,1.6,0.9
				c0.2,0.7,0.1,1.3-0.5,1.9c-0.8,0.8-1.9,1.1-3,1.3c-0.4,0-0.7-0.1-0.7-0.6c0-0.5,0.3-0.6,0.7-0.6c0.5,0,1,0,1.4-0.3
				c0.3-0.2,0.6-0.5,0.9-0.8c0.1-0.1,0.1-0.3,0.1-0.5c0-0.1-0.2-0.2-0.4-0.2C37.3,28.9,37,28.9,36.8,28.9z"/>
			<path d="M44.8,20.1c-0.8,0.8-1.6,1-2.5,0.7c-1-0.3-1.6-1.6-1.5-2.4c0.2-1.4,1.1-2.1,2.3-2.1c0.2,0,0.4,0,0.5,0
				c0.1,0,0.3-0.2,0.3-0.3c0.1-0.3,0.2-0.5,0.5-0.5c0.3,0,0.5,0.2,0.5,0.5c0.2,1.2,0.5,2.4,0.7,3.6c0,0.1,0.1,0.2,0.1,0.3
				c0,0.3,0.1,0.7-0.3,0.8C45.1,20.8,44.8,20.6,44.8,20.1z M43.3,17.1c-0.9,0-1.5,0.5-1.5,1.3c0,0.8,0.6,1.5,1.2,1.5
				c0.7,0,1.4-0.6,1.4-1.5C44.4,17.6,44,17,43.3,17.1z"/>
			<path d="M34.6,16.2c0.8,0.1,1.5,0.2,1.8,1c0.3,0.8,0.2,1.5-0.3,2.1c-0.3,0.4-0.7,0.7-1.1,1c-0.4,0.3-0.4,0.7-0.3,1.1
				c0.1,0.4,0.2,0.7,0.3,1.1c0,0.3,0,0.6-0.1,0.8c-0.1,0.1-0.5,0.2-0.6,0.1c-0.2-0.1-0.4-0.4-0.4-0.7c-0.2-1.3-0.4-2.6-0.6-4
				c0-0.3-0.2-0.6-0.3-0.9c-0.3-0.8-0.1-1.2,0.7-1.4C33.9,16.3,34.3,16.2,34.6,16.2z M34.3,19.3c0.1,0,0.1,0,0.2,0
				c0.3-0.2,0.6-0.5,0.8-0.7c0.3-0.4,0.2-0.9-0.1-1.2c-0.3-0.3-1.2-0.1-1.1,0.2C34.1,18.2,34.2,18.8,34.3,19.3z"/>
			<path d="M54.6,19.3c-1.8,0-2.7-1.7-2.4-3.2c0.2-1.3,1.2-1.9,2.3-2.2c0.5-0.1,0.9,0.1,1.2,0.5c0.3,0.5,0.3,1,0,1.5
				c-0.3,0.6-0.9,0.9-1.5,1.2c-0.1,0-0.2,0.1-0.3,0.1c-0.6,0.2-0.6,0.4-0.1,0.8c0.6,0.4,1.6,0.3,2-0.3c0-0.1,0.1-0.2,0.2-0.2
				c0.2-0.1,0.5-0.2,0.6-0.1c0.1,0.1,0.2,0.5,0.1,0.6c-0.3,0.6-0.8,0.9-1.5,1.1C55,19.3,54.7,19.3,54.6,19.3z M53.1,16.7
				c0.7-0.2,1.2-0.4,1.7-1c0.1-0.1,0.2-0.5,0.1-0.6c-0.1-0.1-0.4-0.2-0.6-0.2C53.6,15,53,15.9,53.1,16.7z"/>
			<path d="M64,24.1c0.1,0.6,0.6,0.8,1.1,0.8c0.5,0,1-0.1,1.4-0.6c0.2-0.3,0.3-0.4,0.6-0.3c0.3,0,0.4,0.2,0.3,0.5
				c-0.2,0.8-0.8,1.1-1.5,1.3c-1.7,0.4-2.9-0.8-3.1-2.1c-0.2-1.5,0.8-3,2.4-3.1c0.5,0,1,0.2,1.2,0.6c0.3,0.6,0.3,1.3-0.2,1.7
				c-0.5,0.4-1.1,0.7-1.6,1C64.4,24,64.2,24,64,24.1z M63.7,23.1c0,0,0.1,0.1,0.1,0.2c0.4-0.2,0.8-0.4,1.2-0.6
				c0.2-0.1,0.4-0.3,0.5-0.5c0.1-0.2,0-0.5-0.1-0.6c-0.1-0.1-0.4-0.1-0.5,0C64.2,21.8,63.8,22.3,63.7,23.1z"/>
			<path d="M62.5,15.7c0.4,1,1.7,1,2.4,0.1c0.1-0.1,0.3-0.3,0.5-0.3c0.1,0,0.4,0.2,0.4,0.3c0,0.2,0,0.4-0.2,0.6
				c-0.7,0.8-1.6,1-2.6,0.9c-0.8-0.1-1.3-0.7-1.6-1.5c-0.6-1.5,0.2-3.2,1.7-3.7c0.8-0.2,1.3-0.1,1.7,0.4c0.4,0.6,0.3,1.4-0.3,1.8
				C63.9,14.9,63.2,15.3,62.5,15.7z M62.3,14.8c0.7-0.2,1.3-0.5,1.7-1.1c0.1-0.1,0-0.4-0.1-0.4C63.8,13,63.6,13,63.4,13
				c-0.7,0.2-1.1,0.7-1.3,1.4C62.2,14.5,62.3,14.7,62.3,14.8z"/>
			<path d="M48.6,27.3c0,0.5,0.6,1,1.2,0.9c0.5-0.1,1-0.2,1.2-0.7c0.1-0.3,0.4-0.4,0.7-0.2c0.3,0.2,0.2,0.6,0,0.8
				c-0.6,0.7-1.4,1-2.3,1c-1-0.1-1.7-0.6-2-1.6c-0.7-1.8,0.4-3.4,2.2-3.7c0.5-0.1,0.9,0.1,1.2,0.5c0.3,0.5,0.3,1,0,1.5
				c-0.3,0.6-0.9,1-1.6,1.2C49.1,27.1,48.9,27.2,48.6,27.3z M50.3,25.2c0-0.5-0.3-0.6-0.6-0.6c-0.6,0.1-1.4,0.9-1.4,1.5
				c0,0.3,0.2,0.5,0.4,0.3c0.5-0.2,0.9-0.5,1.4-0.8C50.2,25.6,50.2,25.3,50.3,25.2z"/>
			<path d="M47.5,15.8c0.4-0.2,0.7-0.4,1.1-0.5c1.1-0.5,2.2,0,2.4,1.2c0.2,0.8,0.4,1.6,0.5,2.5c0,0.2-0.2,0.5-0.4,0.6
				c-0.2,0.1-0.6,0.1-0.6-0.3c-0.1-0.3,0-0.7-0.1-1.1c-0.1-0.5-0.2-1-0.3-1.5C50,16.1,49.7,15.9,49,16c-0.9,0.2-1.3,0.8-1.3,1.3
				c0,0.4,0.1,0.9,0.2,1.3s0.2,0.8,0.2,1.2c0.1,0.4-0.2,0.6-0.5,0.6c-0.3,0-0.5-0.2-0.6-0.5c-0.2-1.1-0.4-2.1-0.7-3.2
				c-0.1-0.4-0.2-0.8-0.2-1.2c0-0.2,0.3-0.5,0.5-0.6c0.2-0.1,0.5,0.1,0.5,0.4C47.3,15.4,47.4,15.6,47.5,15.8z"/>
			<path d="M53,23.4c0.4-0.2,0.7-0.4,1.1-0.6c0.6-0.3,1.3-0.3,1.8,0.2c0.3,0.3,0.5,0.9,0.7,1.4c0.2,0.7,0.3,1.3,0.4,2
				c0,0.2-0.1,0.6-0.3,0.6c-0.2,0.1-0.6-0.1-0.6-0.3C56,26.5,56,26.1,56,25.7c-0.1-0.5-0.2-1-0.3-1.6c-0.1-0.4-0.5-0.6-1-0.5
				c-0.9,0.2-1.4,0.7-1.4,1.3c0,0.5,0.2,0.9,0.2,1.4c0.1,0.4,0.2,0.8,0.2,1.2c0,0.3-0.1,0.5-0.5,0.5c-0.4,0-0.5-0.1-0.6-0.5
				c-0.2-1.1-0.4-2.2-0.7-3.3c-0.1-0.4-0.2-0.8-0.2-1.2c0-0.3,0.1-0.6,0.5-0.6c0.3,0,0.6,0.1,0.6,0.5C52.9,23.1,53,23.2,53,23.4z"/>
			<path d="M70.9,19.8c0,0.5-0.2,0.6-0.6,0.6c-0.6,0-1.1,0.1-1.5,0.6c-0.3,0.3-0.2,0.6,0.2,0.7c0.5,0.1,1,0.1,1.5,0.2
				c0.5,0.1,0.9,0.3,1,0.9c0.1,0.6,0,1.2-0.6,1.5c-0.6,0.3-1.3,0.6-2,0.8c-0.4,0.1-0.8-0.2-0.8-0.5c0-0.4,0.2-0.6,0.6-0.5
				c0.6,0.1,1.1-0.1,1.6-0.5c0.3-0.3,0.2-0.6-0.2-0.7c-0.4-0.1-0.9-0.2-1.3-0.2c-0.6,0-1.1-0.3-1.3-0.7c-0.1-0.4,0.2-1.2,0.5-1.5
				c0.6-0.5,1.3-0.8,2.1-1C70.5,19.2,70.9,19.5,70.9,19.8z"/>
			<path d="M60.3,26.6c-1.1,0-1.9-0.3-2.3-1.3c-0.5-1-0.1-1.9,0.5-2.7c0.6-0.7,1.3-1.2,2.3-1.3c0.4-0.1,0.6,0,0.7,0.4
				c0.1,0.3-0.2,0.7-0.6,0.7c-1.2,0.1-1.7,0.5-2,1.8c-0.2,0.7,0.3,1.5,1,1.5c0.6,0,1.1,0.1,1.5-0.5c0.3-0.3,0.8-0.3,1,0
				c0.2,0.3,0.1,0.6-0.3,0.9C61.6,26.4,60.9,26.7,60.3,26.6z"/>
			<path d="M59.4,18.5c-0.9,0-1.5-0.5-1.6-1.2c-0.1-0.6-0.3-1.2-0.4-1.8c-0.1-0.3-0.2-0.6-0.6-0.6c-0.1,0-0.4-0.2-0.4-0.3
				c0-0.1,0.1-0.4,0.2-0.5c0.3-0.2,0.5-0.4,0.4-0.7c0-0.1,0-0.3,0-0.4c0.1-0.2,0.3-0.4,0.5-0.5c0.1,0,0.3,0.2,0.4,0.4
				c0,0,0,0.1,0,0.1c0.1,0.7,0.3,0.7,0.9,0.5c0.3-0.1,0.6-0.2,0.8-0.3c0.3-0.1,0.5,0.1,0.6,0.3c0.1,0.3-0.1,0.5-0.3,0.5
				c-0.3,0.1-0.6,0.2-0.9,0.2c-0.8,0.1-0.8,0.2-0.7,1c0.1,0.5,0.2,1.1,0.4,1.6c0.2,0.6,0.6,0.8,1.1,0.4c0.1-0.1,0.2-0.2,0.4-0.2
				c0.2,0,0.5,0,0.6,0.2c0.2,0.2,0.2,0.5-0.1,0.6C60.2,18.1,59.7,18.4,59.4,18.5z"/>
			<path d="M42.4,30.4c-0.9,0-1.7-0.3-2.2-1.2c-0.5-1-0.2-2,0.4-2.8c0.6-0.7,1.3-1.3,2.4-1.4c0.4,0,0.6,0,0.7,0.4
				c0.1,0.3-0.2,0.7-0.6,0.7c-1.1,0.1-1.7,0.6-2,1.6c-0.3,0.8,0.4,1.8,1.5,1.7c0.4,0,0.7-0.3,1-0.5c0.1-0.1,0.2-0.2,0.4-0.2
				c0.3,0,0.6-0.1,0.7,0.3c0,0.2,0,0.5-0.2,0.6C44.1,30.1,43.2,30.4,42.4,30.4z"/>
			<path d="M39.4,21.6c0.3-0.3,0.5-0.4,0.7-0.6c0.2-0.2,0.5-0.3,0.7-0.1c0.3,0.2,0.3,0.6,0,0.8c-0.5,0.4-1,0.8-1.6,0.7
				c-0.7-0.1-0.9-0.8-1-1.4c-0.4-1.8-0.7-3.7-1.1-5.5c0-0.3,0-0.6,0.4-0.7c0.4-0.1,0.6,0.1,0.6,0.5c0.3,1.7,0.6,3.5,0.9,5.2
				C39,20.9,39.2,21.2,39.4,21.6z"/>
			<path d="M46,30c-0.3,0-0.5-0.3-0.5-0.7c0-1.3-0.4-2.5-0.6-3.7c0-0.2,0.2-0.4,0.2-0.6c0.2,0.1,0.5,0.1,0.6,0.3
				c0.1,0.4,0.2,0.8,0.3,1.3c0.2,0.9,0.4,1.9,0.6,2.8C46.7,29.7,46.5,30,46,30z"/>
			<path d="M54.2,11.8c-1-0.3-2-0.5-2.9-0.8c-0.8-0.2-0.8-0.2-0.7-1.2c1.1,0.3,2.3,0.7,3.4,1c0.1,0,0.2,0.3,0.2,0.4
				C54.2,11.3,54.2,11.5,54.2,11.8z"/>
			<path d="M44.2,35.7c0,0.6-0.3,0.9-0.9,0.9c-0.6,0-1-0.5-1-1.1c0-0.6,0.4-1.1,0.8-1.1C43.7,34.4,44.3,34.8,44.2,35.7z"/>
			<path d="M44.9,22.8c0.5,0,0.8,0.3,0.7,0.7c0,0.4-0.3,0.6-0.6,0.6c-0.4,0-0.7-0.3-0.7-0.7C44.2,23,44.5,22.8,44.9,22.8z"/>
			<path class="st4" d="M43.3,17.1c0.7-0.1,1,0.5,1.1,1.4c0,0.9-0.6,1.4-1.4,1.5c-0.6,0-1.2-0.7-1.2-1.5
				C41.9,17.6,42.4,17.1,43.3,17.1z"/>
			<path class="st4" d="M34.3,19.3c-0.1-0.5-0.3-1.1-0.3-1.7c0-0.3,0.8-0.5,1.1-0.2c0.4,0.3,0.4,0.8,0.1,1.2
				c-0.2,0.3-0.5,0.5-0.8,0.7C34.5,19.3,34.4,19.3,34.3,19.3z"/>
			<path class="st4" d="M53.1,16.7c-0.1-0.8,0.5-1.7,1.2-1.7c0.2,0,0.5,0.1,0.6,0.2c0.1,0.1,0,0.4-0.1,0.6
				C54.4,16.2,53.8,16.5,53.1,16.7z"/>
			<path class="st4" d="M63.7,23.1c0.1-0.8,0.4-1.3,1.2-1.6c0.2,0,0.5,0,0.5,0c0.1,0.1,0.1,0.4,0.1,0.6c-0.1,0.2-0.3,0.4-0.5,0.5
				c-0.4,0.2-0.8,0.4-1.2,0.6C63.8,23.2,63.7,23.2,63.7,23.1z"/>
			<path class="st4" d="M62.3,14.8c0-0.1-0.1-0.2-0.1-0.3c0.1-0.7,0.5-1.2,1.3-1.4c0.1,0,0.4,0,0.5,0.2c0.1,0.1,0.1,0.3,0.1,0.4
				C63.6,14.2,63.1,14.5,62.3,14.8z"/>
			<path class="st4" d="M50.3,25.2c0,0.1-0.1,0.3-0.2,0.4c-0.4,0.3-0.9,0.6-1.4,0.8c-0.3,0.1-0.4,0-0.4-0.3c0-0.6,0.7-1.4,1.4-1.5
				C50,24.6,50.2,24.8,50.3,25.2z"/>
		</g>
	</g>
</g>
<g>
</g>
<g>
</g>
<g>
</g>
<g>
</g>
<g>
</g>
<g>
</g>
</svg>
