<?xml version="1.0" encoding="utf-8"?>
<!-- Generator: Adobe Illustrator 25.2.0, SVG Export Plug-In . SVG Version: 6.00 Build 0)  -->
<svg version="1.1" id="Calque_1" xmlns="http://www.w3.org/2000/svg" xmlns:xlink="http://www.w3.org/1999/xlink" x="0px" y="0px"
	 viewBox="0 0 239.7 160.6" style="enable-background:new 0 0 239.7 160.6;" xml:space="preserve">
<style type="text/css">
	.st0{fill:none;stroke:#FF0000;stroke-width:2.834646e-02;stroke-miterlimit:10;}
	.st1{fill:none;stroke:#FF0000;stroke-width:2.834646e-02;stroke-linecap:round;stroke-linejoin:round;stroke-miterlimit:10;}
	.st2{fill:none;stroke:#FF0000;stroke-width:2.834592e-02;stroke-miterlimit:9.9998;}
	.st3{fill:none;}
	.st4{fill:#FFFFFF;}
	.st5{fill-rule:evenodd;clip-rule:evenodd;fill:#1D1D1B;}
	.st6{fill:#1D1D1B;}
	.st7{fill:none;stroke:#0000FF;stroke-width:2.834646e-02;stroke-miterlimit:10;}
	.st8{font-family:'NasalizationRg-Regular';}
	.st9{font-size:15px;}
</style>
<path class="st0" d="M231.4,160.6H8.7c-4.7,0-8.5-3.8-8.5-8.5V8.5C0.2,3.8,4,0,8.7,0h222.7c4.7,0,8.5,3.8,8.5,8.5v143.6
	C239.9,156.8,236.1,160.6,231.4,160.6z"/>
<path class="st0" d="M134.1,155.5"/>
<g>
	<line class="st0" x1="119.9" y1="114.7" x2="44.8" y2="114.7"/>
	<line class="st0" x1="44.7" y1="155.5" x2="93.1" y2="155.5"/>
	<g id="LINE_32_">
		<line class="st1" x1="35.6" y1="118.8" x2="35.6" y2="155.5"/>
	</g>
	<g id="LINE_31_">
		<line class="st1" x1="38.5" y1="114.7" x2="38.5" y2="151.4"/>
	</g>
	<g id="LINE_30_">
		<line class="st1" x1="41.4" y1="118.8" x2="41.4" y2="155.5"/>
	</g>
	<g id="LINE_29_">
		<line class="st1" x1="44.3" y1="114.7" x2="44.3" y2="151.4"/>
	</g>
	<g id="LINE_28_">
		<line class="st1" x1="47.3" y1="118.8" x2="47.3" y2="155.5"/>
	</g>
	<g id="LINE_27_">
		<line class="st1" x1="50.1" y1="114.7" x2="50.1" y2="151.4"/>
	</g>
	<g id="LINE_26_">
		<line class="st1" x1="52.9" y1="118.8" x2="52.9" y2="155.5"/>
	</g>
	<g id="LINE_25_">
		<line class="st1" x1="55.7" y1="114.7" x2="55.7" y2="151.4"/>
	</g>
	<g id="LINE_24_">
		<line class="st1" x1="58.9" y1="118.8" x2="58.9" y2="155.5"/>
	</g>
	<g id="LINE_23_">
		<line class="st1" x1="61.8" y1="114.7" x2="61.8" y2="151.4"/>
	</g>
	<g id="LINE_22_">
		<line class="st1" x1="64.8" y1="118.8" x2="64.8" y2="155.5"/>
	</g>
	<g id="LINE_21_">
		<line class="st1" x1="67.7" y1="114.7" x2="67.7" y2="151.4"/>
	</g>
	<g id="LINE_20_">
		<line class="st1" x1="70.9" y1="118.8" x2="70.9" y2="155.5"/>
	</g>
	<g id="LINE_19_">
		<line class="st1" x1="73.7" y1="114.7" x2="73.7" y2="151.4"/>
	</g>
	<g id="LINE_18_">
		<line class="st1" x1="77" y1="118.8" x2="77" y2="155.5"/>
	</g>
	<g id="LINE_17_">
		<line class="st1" x1="79.9" y1="114.7" x2="79.9" y2="151.4"/>
	</g>
	<line class="st0" x1="44.8" y1="114.7" x2="35.6" y2="114.7"/>
	<line class="st0" x1="44.8" y1="155.5" x2="35.6" y2="155.5"/>
	<line class="st0" x1="119.9" y1="114.7" x2="105.9" y2="126.9"/>
	
		<rect x="82.5" y="131.1" transform="matrix(0.7071 -0.7071 0.7071 0.7071 -68.8854 104.7498)" class="st2" width="19" height="8.9"/>
	<line class="st0" x1="112.6" y1="136" x2="105.9" y2="126.9"/>
	<line class="st0" x1="112.6" y1="136" x2="93.1" y2="155.5"/>
</g>
<g>
	<line class="st0" x1="119.9" y1="114.7" x2="195" y2="114.7"/>
	<line class="st0" x1="195" y1="155.5" x2="146.6" y2="155.5"/>
	<g id="LINE_16_">
		<line class="st1" x1="204.1" y1="118.8" x2="204.1" y2="155.5"/>
	</g>
	<g id="LINE_15_">
		<line class="st1" x1="201.3" y1="114.7" x2="201.3" y2="151.4"/>
	</g>
	<g id="LINE_14_">
		<line class="st1" x1="198.3" y1="118.8" x2="198.3" y2="155.5"/>
	</g>
	<g id="LINE_13_">
		<line class="st1" x1="195.4" y1="114.7" x2="195.4" y2="151.4"/>
	</g>
	<g id="LINE_12_">
		<line class="st1" x1="192.5" y1="118.8" x2="192.5" y2="155.5"/>
	</g>
	<g id="LINE_11_">
		<line class="st1" x1="189.6" y1="114.7" x2="189.6" y2="151.4"/>
	</g>
	<g id="LINE_10_">
		<line class="st1" x1="186.9" y1="118.8" x2="186.9" y2="155.5"/>
	</g>
	<g id="LINE_9_">
		<line class="st1" x1="184" y1="114.7" x2="184" y2="151.4"/>
	</g>
	<g id="LINE_8_">
		<line class="st1" x1="180.8" y1="118.8" x2="180.8" y2="155.5"/>
	</g>
	<g id="LINE_7_">
		<line class="st1" x1="178" y1="114.7" x2="178" y2="151.4"/>
	</g>
	<g id="LINE_6_">
		<line class="st1" x1="174.9" y1="118.8" x2="174.9" y2="155.5"/>
	</g>
	<g id="LINE_5_">
		<line class="st1" x1="172" y1="114.7" x2="172" y2="151.4"/>
	</g>
	<g id="LINE_4_">
		<line class="st1" x1="168.9" y1="118.8" x2="168.9" y2="155.5"/>
	</g>
	<g id="LINE_3_">
		<line class="st1" x1="166" y1="114.7" x2="166" y2="151.4"/>
	</g>
	<g id="LINE_2_">
		<line class="st1" x1="162.7" y1="118.8" x2="162.7" y2="155.5"/>
	</g>
	<g id="LINE_1_">
		<line class="st1" x1="159.8" y1="114.7" x2="159.8" y2="151.4"/>
	</g>
	<line class="st0" x1="195" y1="114.7" x2="204.1" y2="114.7"/>
	<line class="st0" x1="195" y1="155.5" x2="204.1" y2="155.5"/>
	<line class="st0" x1="119.9" y1="114.7" x2="133.8" y2="126.9"/>
	
		<rect x="143.3" y="126.1" transform="matrix(0.7071 -0.7071 0.7071 0.7071 -52.6303 144.1888)" class="st2" width="8.9" height="19"/>
	<line class="st0" x1="127.1" y1="136" x2="133.8" y2="126.9"/>
	<line class="st0" x1="127.1" y1="136" x2="146.6" y2="155.5"/>
</g>
<rect x="3.8" y="29.2" class="st3" width="232.1" height="83.3"/>
<rect x="3.8" y="29.2" class="st3" width="232.1" height="83.3"/>
<rect x="3.8" y="29.2" class="st3" width="232.1" height="83.3"/>
<rect x="3.8" y="29.2" class="st3" width="232.1" height="83.3"/>
<g>
	<g id="Logo_2_">
		<path d="M225.4,137.1c-2.2,0-4.6-1.9-4.6-5v-10.3h-0.7v5.5c-3.2,0.7-5.5,3.3-5.5,6.4c0,3.7,3.2,6.6,7.1,6.6c3,0,5.6-1.7,6.6-4.2
			C227.6,136.7,226.5,137.1,225.4,137.1"/>
		<path d="M221.7,127c0.3,0,4,0,6.1,3.3c0.7,1.1,0,2.5-2.2,2.5C224.9,132.8,222.2,132.1,221.7,127"/>
		<path d="M217.1,142.2c-1.8,0-3.7,0.8-3.7,3.5v3.7h1.7v-3.7c0-1.9,1.2-2.3,2.1-2.3s2.1,0.4,2.1,2.3v3.7h1.7v-3.7
			C220.8,143,218.9,142.2,217.1,142.2"/>
		<path d="M205.4,145.9c0,1.7,0.8,3.5,3.5,3.5h3.4v-1.2h-2.9c-1.9,0-2.2-1.4-2.2-2.3c0-0.9,0.4-2.3,2.2-2.3h2.9v-1.2h-3.4
			C206.2,142.4,205.4,144.2,205.4,145.9"/>
		<path d="M227.5,145.4h-4c0-0.6,0-2.1,2-2.1C227.8,143.3,227.5,145.4,227.5,145.4 M223.5,146.5h5.8c0-0.2,0-0.5,0-0.5
			c0-3.1-2.1-3.8-3.9-3.8c-2.6,0-3.6,1.9-3.6,3.6v0.1c0,1.7,0.8,3.5,3.5,3.5h3.8v-1.2h-3.4C224.2,148.2,223.7,147.3,223.5,146.5"/>
		<path d="M234.4,145.4h-0.9c-0.9,0-1.4-0.3-1.4-0.9c0-0.6,0.4-0.8,1.3-0.9h3.6v-1.2h-3.6c-1.5,0-3.1,0.2-3.1,2.1c0,2,2.2,2,2.9,2
			h0.9c0.9,0,1.4,0.3,1.4,0.9c0,0.6-0.4,0.8-1.3,0.9h-3.6v1.2h3.6c1.5,0,3.1-0.2,3.1-2.1C237.3,145.4,235.1,145.4,234.4,145.4"/>
	</g>
</g>
<g>
	<g>
		<g>
			<path d="M110.7,146.5c-0.5-0.4-1.1-0.7-1.6-1.1c-0.2-0.2,0-0.4,0-0.6c0.3-1.1,0.7-2,1.3-3c-0.3,0.2-0.7,0.3-0.8,0.7
				c-0.3,0.8-0.7,1.6-1,2.3c-0.2-0.2-0.5-0.4-0.8-0.7l0,0c-0.3,0.3-0.3,0.3,0.1,0.7c0.1,0.1,0.3,0.3,0.4,0.4
				c0.3,0.2,0.2,0.4,0.2,0.7c0,0.5-0.1,0.9,0,1.4c0,0.4,0.1,0.9,0.1,1.3c0,0.1,0,0.3,0.1,0.4c0,0,0,0-0.1,0.1
				c-0.7-0.4-1.4-0.9-2.1-1.3c-0.1,0.3-0.1,0.4,0.2,0.6c0.6,0.5,1.3,0.9,2,1.2c0.1,0,0.1,0.1,0.2,0.2c0.3,0.7,0.6,1.4,1,2.1
				c0.2,0.4,0.5,0.7,0.7,1.1c-0.8-0.1-1.5-0.4-2.2-0.7c0.3,0.3,0.5,0.7,1,0.8s1,0.3,1.5,0.4c0.1,0,0.3,0.1,0.3,0.2
				c0.6,0.5,1.1,1,1.7,1.4c0.3,0.2,0.7,0.3,1.1,0.5c0.2,0.1,0.5,0.1,0.8,0.2c-1.1-0.6-2.1-1.3-3-2.2c0.2,0,0.4,0.1,0.6,0.1
				s0.4,0,0.5,0c0.2,0,0.3-0.1,0.5,0.1c0.6,0.8,1.3,1.5,2.1,2c0.1,0.1,0.2,0.2,0.4,0.3l0,0c-0.2,0.6-0.1,0.5-0.8,0.3
				c-1.4-0.3-2.8-0.8-4.1-1.5c-1.2-0.7-2.3-1.5-3.3-2.6c-0.9-1-1.5-2.2-1.7-3.5c-0.2-1,0-2.1,0.3-3.1c0.3-0.8,0.8-1.6,1.4-2.3
				c1-1.2,2.2-2.1,3.6-2.7c1.3-0.6,2.6-1.1,4-1.3c0.9-0.2,1.9-0.3,2.9-0.3c0.8,0,1.6,0,2.4,0.1c0.4,0,0.8,0.1,1.2,0.2
				c0.1,0,0.1,0.1,0.2,0.2c0,0.1,0,0.2,0,0.3c-0.7-0.1-1.4-0.1-2.1-0.2c-0.9-0.1-1.8,0-2.7,0.1c-1.4,0.1-2.8,0.4-4.2,0.9
				c-0.5,0.2-0.9,0.4-1.4,0.6c-0.1,0-0.2,0.1-0.2,0.2c-0.3,0.9-0.5,1.8-0.6,2.7c0,0.6-0.1,1.2-0.1,1.7
				C110.7,146.1,110.8,146.3,110.7,146.5C110.8,146.5,110.8,146.5,110.7,146.5z"/>
			<path d="M119.5,155.5c0.2,0.3,0.5,0.5,0.6,0.7c0.3,0.4,0.4,0.9,0.2,1.4c0,0.1-0.1,0.1-0.2,0.2c-0.1-0.1-0.2-0.1-0.2-0.2
				c-0.1-0.6-0.5-1-1-1.3c-0.3-0.2-0.5-0.2-0.7,0.2c-0.4,0.7-1,0.9-1.7,1c-0.1,0-0.3,0.1-0.4,0c-0.1,0-0.2-0.1-0.2-0.1
				c0-0.1,0-0.2,0.1-0.2c0.2-0.1,0.4-0.3,0.7-0.4c0.4-0.2,0.9-0.6,0.8-1c0-0.4-0.2-0.7-0.4-1.1c-0.2-0.5-0.6-0.9-0.5-1.5
				c0-0.1,0-0.1,0-0.2c0.1-0.1,0.1-0.2,0.2-0.3c0.1,0.1,0.2,0.2,0.2,0.3c0.2,0.6,0.5,1,0.9,1.4c0.1,0.1,0.3,0.2,0.5,0.2
				c0.8,0.1,1.5-0.1,2.1-0.7c0.1-0.1,0.1-0.1,0.2-0.2c0.1,0,0.1-0.1,0.3-0.2c0,0.2,0,0.3,0,0.4c-0.2,0.6-0.6,0.9-1,1.3
				C119.8,155.3,119.6,155.4,119.5,155.5z"/>
			<path d="M109,145.9c0.6,0.3,1.1,0.7,1.7,1c0.1,0,0.2,0.1,0.2,0.2c0.2,0.8,0.3,1.7,0.5,2.5c0,0,0,0.1,0,0.2
				c-0.7-0.2-1.3-0.3-2-0.5c-0.1,0-0.2-0.1-0.2-0.2c-0.3-1-0.2-1.9-0.2-2.9C108.9,146.1,109,146,109,145.9z"/>
			<path d="M109.4,149.9c0.4,0.1,0.9,0.2,1.3,0.2c0.2,0,0.5,0.1,0.7,0.1c0.1,0,0.2,0,0.3,0.2c0.2,0.5,0.4,0.9,0.6,1.4
				s0.5,0.9,0.8,1.4c-0.5,0-1.1,0-1.6-0.1c-0.2,0-0.3-0.3-0.5-0.5C110.2,151.8,109.7,150.9,109.4,149.9z"/>
			<path d="M115.1,150c-0.3,0-0.6,0-1,0c-0.7-0.1-0.8-0.7-0.5-1.2c0.4-0.7,1.1-0.9,1.8-1.1c0.2,0,0.4,0.1,0.4,0.3s-0.1,0.3-0.3,0.3
				c-0.5,0.1-0.9,0.2-1.2,0.7c-0.2,0.3-0.1,0.5,0.3,0.5c0.3,0,0.6,0,0.9,0c0.4,0,0.8,0.2,0.9,0.5c0.1,0.4,0,0.7-0.3,1
				c-0.5,0.4-1,0.6-1.6,0.7c-0.2,0-0.4-0.1-0.4-0.3c0-0.3,0.2-0.3,0.4-0.3c0.3,0,0.5,0,0.8-0.2c0.2-0.1,0.3-0.3,0.5-0.4
				c0.1-0.1,0.1-0.2,0-0.3c0-0.1-0.1-0.1-0.2-0.1C115.4,150,115.3,150,115.1,150z"/>
			<path d="M119.5,145.2c-0.4,0.4-0.9,0.5-1.4,0.4c-0.5-0.2-0.9-0.9-0.8-1.3c0.1-0.8,0.6-1.1,1.2-1.2c0.1,0,0.2,0,0.3,0
				c0.1,0,0.2-0.1,0.2-0.2c0-0.2,0.1-0.3,0.3-0.3c0.2,0,0.3,0.1,0.3,0.3c0.1,0.7,0.3,1.3,0.4,1.9c0,0.1,0,0.1,0,0.2
				c0,0.2,0,0.4-0.2,0.4C119.7,145.6,119.5,145.5,119.5,145.2z M118.7,143.5c-0.5,0-0.8,0.3-0.8,0.7s0.3,0.8,0.7,0.8
				c0.4,0,0.8-0.3,0.7-0.8C119.3,143.8,119.1,143.5,118.7,143.5z"/>
			<path d="M113.9,143c0.4,0,0.8,0.1,1,0.5s0.1,0.8-0.2,1.2c-0.2,0.2-0.4,0.4-0.6,0.5c-0.2,0.2-0.2,0.4-0.2,0.6
				c0,0.2,0.1,0.4,0.1,0.6c0,0.1,0,0.3-0.1,0.4c0,0.1-0.3,0.1-0.3,0.1c-0.1-0.1-0.2-0.2-0.2-0.4c-0.1-0.7-0.2-1.4-0.3-2.2
				c0-0.2-0.1-0.3-0.2-0.5c-0.2-0.4-0.1-0.7,0.4-0.8C113.5,143.1,113.7,143.1,113.9,143z M113.8,144.7L113.8,144.7
				c0.2-0.1,0.4-0.3,0.5-0.4c0.2-0.2,0.1-0.5-0.1-0.6c-0.2-0.2-0.6-0.1-0.6,0.1C113.6,144.1,113.7,144.4,113.8,144.7z"/>
			<path d="M124.8,144.7c-1,0-1.5-0.9-1.3-1.7c0.1-0.7,0.6-1,1.3-1.2c0.3-0.1,0.5,0.1,0.7,0.3c0.2,0.3,0.2,0.6,0,0.8
				c-0.2,0.3-0.5,0.5-0.8,0.7c-0.1,0-0.1,0-0.2,0.1c-0.3,0.1-0.3,0.2,0,0.4s0.9,0.1,1.1-0.2l0.1-0.1c0.1,0,0.3-0.1,0.3-0.1
				c0.1,0.1,0.1,0.3,0.1,0.3c-0.2,0.3-0.5,0.5-0.8,0.6C125.1,144.7,124.9,144.7,124.8,144.7z M124.1,143.3c0.4-0.1,0.7-0.2,0.9-0.5
				c0.1-0.1,0.1-0.3,0.1-0.3c-0.1-0.1-0.2-0.1-0.3-0.1C124.3,142.4,124,142.9,124.1,143.3z"/>
			<path d="M130,147.3c0.1,0.3,0.3,0.4,0.6,0.5c0.3,0,0.6-0.1,0.7-0.3c0.1-0.1,0.2-0.2,0.3-0.2s0.2,0.1,0.2,0.3
				c-0.1,0.5-0.5,0.6-0.8,0.7c-0.9,0.2-1.6-0.4-1.7-1.1c-0.1-0.8,0.5-1.6,1.3-1.7c0.3,0,0.5,0.1,0.7,0.3c0.2,0.3,0.2,0.7-0.1,0.9
				s-0.6,0.4-0.9,0.6C130.2,147.3,130.1,147.3,130,147.3z M129.8,146.8C129.9,146.8,129.9,146.9,129.8,146.8c0.3,0,0.5-0.1,0.7-0.2
				c0.1-0.1,0.2-0.2,0.3-0.3c0-0.1,0-0.3,0-0.3c0-0.1-0.2-0.1-0.3,0C130.1,146.1,129.9,146.4,129.8,146.8z"/>
			<path d="M129.2,142.8c0.2,0.5,1,0.6,1.3,0c0.1-0.1,0.2-0.2,0.3-0.2s0.2,0.1,0.2,0.2c0,0.1,0,0.2-0.1,0.3
				c-0.4,0.5-0.9,0.6-1.4,0.5s-0.7-0.4-0.9-0.8c-0.4-0.8,0.1-1.7,0.9-2c0.4-0.1,0.7-0.1,0.9,0.2s0.2,0.7-0.2,1
				C130,142.4,129.6,142.5,129.2,142.8z M129.1,142.3c0.4-0.1,0.7-0.3,0.9-0.6c0-0.1,0-0.2,0-0.2c-0.1-0.1-0.2-0.1-0.3-0.1
				c-0.4,0.1-0.6,0.4-0.7,0.8C129,142.1,129.1,142.2,129.1,142.3z"/>
			<path d="M121.6,149.1c0,0.3,0.4,0.6,0.7,0.5c0.3-0.1,0.5-0.1,0.7-0.4c0.1-0.2,0.2-0.2,0.4-0.1c0.2,0.1,0.1,0.3,0,0.4
				c-0.3,0.4-0.8,0.6-1.3,0.5c-0.5,0-0.9-0.4-1.1-0.9c-0.4-1,0.2-1.9,1.2-2c0.3,0,0.5,0,0.6,0.3c0.2,0.3,0.2,0.6,0,0.8
				c-0.2,0.3-0.5,0.5-0.9,0.7C121.9,149,121.7,149.1,121.6,149.1z M122.5,148c0-0.3-0.1-0.4-0.3-0.3c-0.3,0-0.7,0.5-0.7,0.8
				c0,0.2,0.1,0.3,0.2,0.2c0.3-0.1,0.5-0.3,0.7-0.5C122.4,148.2,122.5,148,122.5,148z"/>
			<path d="M121,142.8c0.2-0.1,0.4-0.2,0.6-0.3c0.6-0.3,1.2,0,1.3,0.6c0.1,0.4,0.2,0.9,0.3,1.3c0,0.1-0.1,0.3-0.2,0.3
				c-0.1,0.1-0.3,0-0.4-0.2c0-0.2,0-0.4-0.1-0.6c0-0.3-0.1-0.5-0.2-0.8s-0.2-0.4-0.6-0.3c-0.5,0.1-0.7,0.5-0.7,0.7s0.1,0.5,0.1,0.7
				s0.1,0.4,0.1,0.7c0,0.2-0.1,0.3-0.3,0.3c-0.2,0-0.3-0.1-0.3-0.3c-0.1-0.6-0.2-1.2-0.4-1.8c0-0.2-0.1-0.4-0.1-0.7
				c0-0.1,0.2-0.3,0.3-0.3c0.1,0,0.3,0,0.3,0.2C120.9,142.6,120.9,142.7,121,142.8z"/>
			<path d="M124,147c0.2-0.1,0.4-0.2,0.6-0.3c0.4-0.2,0.7-0.2,1,0.1c0.2,0.2,0.3,0.5,0.4,0.8c0.1,0.4,0.2,0.7,0.2,1.1
				c0,0.1-0.1,0.3-0.2,0.4s-0.3-0.1-0.4-0.2c-0.1-0.2-0.1-0.4-0.1-0.6c0-0.3-0.1-0.6-0.2-0.9c-0.1-0.2-0.3-0.3-0.5-0.3
				c-0.5,0.1-0.8,0.4-0.8,0.7s0.1,0.5,0.1,0.8c0,0.2,0.1,0.4,0.1,0.7c0,0.2-0.1,0.3-0.3,0.3c-0.2,0-0.3-0.1-0.3-0.3
				c-0.1-0.6-0.2-1.2-0.4-1.8c0-0.2-0.1-0.4-0.1-0.7c0-0.1,0.1-0.3,0.3-0.3c0.2,0,0.3,0.1,0.3,0.3C123.9,146.8,124,146.9,124,147z"
				/>
			<path d="M133.8,145c0,0.3-0.1,0.3-0.3,0.3c-0.3,0-0.6,0.1-0.8,0.3s-0.1,0.3,0.1,0.4c0.3,0.1,0.5,0.1,0.8,0.1
				c0.3,0.1,0.5,0.2,0.6,0.5c0,0.3,0,0.7-0.3,0.8c-0.4,0.2-0.7,0.3-1.1,0.4c-0.2,0.1-0.4-0.1-0.4-0.3s0.1-0.3,0.3-0.3
				c0.3,0.1,0.6-0.1,0.9-0.3c0.2-0.1,0.1-0.3-0.1-0.4c-0.2-0.1-0.5-0.1-0.7-0.1c-0.3,0-0.6-0.2-0.7-0.4c-0.1-0.2,0.1-0.7,0.3-0.8
				c0.3-0.3,0.7-0.4,1.1-0.5C133.6,144.7,133.8,144.8,133.8,145z"/>
			<path d="M128,148.8c-0.6,0-1-0.2-1.3-0.7c-0.3-0.6-0.1-1.1,0.3-1.5c0.3-0.4,0.7-0.6,1.2-0.7c0.2,0,0.4,0,0.4,0.2
				c0.1,0.2-0.1,0.4-0.3,0.4c-0.7,0.1-0.9,0.3-1.1,1c-0.1,0.4,0.2,0.8,0.6,0.8c0.3,0,0.6,0,0.8-0.3c0.1-0.2,0.5-0.2,0.6,0
				s0.1,0.3-0.2,0.5C128.7,148.6,128.3,148.8,128,148.8z"/>
			<path d="M127.5,144.3c-0.5,0-0.8-0.3-0.9-0.7c-0.1-0.3-0.1-0.7-0.2-1c0-0.2-0.1-0.3-0.4-0.3c-0.1,0-0.2-0.1-0.2-0.2
				c0-0.1,0.1-0.2,0.1-0.3c0.2-0.1,0.3-0.2,0.2-0.4c0-0.1,0-0.2,0-0.2c0.1-0.1,0.1-0.2,0.3-0.3c0,0,0.2,0.1,0.2,0.2v0.1
				c0.1,0.4,0.1,0.4,0.5,0.3c0.1-0.1,0.3-0.1,0.5-0.1c0.2-0.1,0.3,0,0.4,0.2c0.1,0.2-0.1,0.3-0.2,0.3c-0.2,0.1-0.3,0.1-0.5,0.1
				c-0.4,0.1-0.5,0.1-0.4,0.5c0,0.3,0.1,0.6,0.2,0.9c0.1,0.3,0.3,0.4,0.6,0.2c0.1,0,0.1-0.1,0.2-0.1s0.3,0,0.4,0.1
				c0.1,0.1,0.1,0.3,0,0.3C127.9,144.1,127.6,144.2,127.5,144.3z"/>
			<path d="M118.2,150.8c-0.5,0-1-0.2-1.2-0.7c-0.3-0.5-0.1-1.1,0.2-1.5c0.3-0.4,0.7-0.7,1.3-0.8c0.2,0,0.4,0,0.4,0.2
				c0.1,0.2-0.1,0.4-0.3,0.4c-0.6,0-0.9,0.3-1.1,0.9c-0.1,0.5,0.2,1,0.8,0.9c0.2,0,0.4-0.2,0.6-0.3c0.1,0,0.1-0.1,0.2-0.1
				c0.2,0,0.3,0,0.4,0.2c0,0.1,0,0.3-0.1,0.3C119.1,150.7,118.6,150.8,118.2,150.8z"/>
			<path d="M116.5,146c0.2-0.1,0.3-0.2,0.4-0.3s0.3-0.2,0.4,0c0.1,0.1,0.2,0.3,0,0.4c-0.3,0.2-0.5,0.5-0.9,0.4s-0.5-0.4-0.6-0.8
				c-0.2-1-0.4-2-0.6-3c0-0.2,0-0.3,0.2-0.4s0.3,0.1,0.3,0.3c0.2,1,0.3,1.9,0.5,2.9C116.3,145.6,116.4,145.8,116.5,146z"/>
			<path d="M120.2,150.6c-0.2,0-0.3-0.2-0.3-0.4c0-0.7-0.2-1.4-0.3-2c0-0.1,0.1-0.2,0.1-0.4c0.1,0,0.3,0.1,0.3,0.2
				c0.1,0.2,0.1,0.5,0.2,0.7c0.1,0.5,0.2,1,0.3,1.5C120.6,150.4,120.4,150.6,120.2,150.6z"/>
			<path d="M124.6,140.6c-0.6-0.2-1.1-0.3-1.6-0.4c-0.4-0.1-0.4-0.1-0.4-0.7c0.6,0.2,1.3,0.4,1.9,0.6c0.1,0,0.1,0.1,0.1,0.2
				C124.6,140.4,124.6,140.5,124.6,140.6z"/>
			<path d="M119.2,153.7c0,0.3-0.2,0.5-0.5,0.5s-0.6-0.3-0.6-0.6s0.2-0.6,0.5-0.6C118.9,153,119.2,153.2,119.2,153.7z"/>
			<path d="M119.5,146.6c0.3,0,0.4,0.2,0.4,0.4s-0.1,0.4-0.4,0.3c-0.2,0-0.4-0.2-0.4-0.4C119.2,146.8,119.3,146.6,119.5,146.6z"/>
			<path class="st4" d="M118.7,143.5c0.4-0.1,0.6,0.3,0.6,0.7c0,0.5-0.3,0.8-0.7,0.8c-0.3,0-0.7-0.4-0.7-0.8
				C117.9,143.8,118.2,143.5,118.7,143.5z"/>
			<path class="st4" d="M113.8,144.7c-0.1-0.3-0.1-0.6-0.2-0.9c0-0.2,0.4-0.3,0.6-0.1s0.2,0.4,0.1,0.6
				C114.2,144.5,114,144.6,113.8,144.7C113.8,144.8,113.8,144.8,113.8,144.7z"/>
			<path class="st4" d="M124.1,143.3c-0.1-0.4,0.3-0.9,0.6-1c0.1,0,0.3,0,0.3,0.1s0,0.2-0.1,0.3
				C124.7,143.1,124.4,143.2,124.1,143.3z"/>
			<path class="st4" d="M129.8,146.8c0.1-0.4,0.2-0.7,0.7-0.9c0.1,0,0.3,0,0.3,0c0.1,0.1,0.1,0.2,0,0.3c0,0.1-0.2,0.2-0.3,0.3
				C130.3,146.7,130.1,146.8,129.8,146.8C129.9,146.9,129.9,146.8,129.8,146.8z"/>
			<path class="st4" d="M129.1,142.3c0-0.1-0.1-0.1-0.1-0.2c0.1-0.4,0.3-0.7,0.7-0.8c0.1,0,0.2,0,0.3,0.1c0,0,0.1,0.2,0,0.2
				C129.8,142,129.5,142.1,129.1,142.3z"/>
			<path class="st4" d="M122.5,148c0,0,0,0.2-0.1,0.2c-0.2,0.2-0.5,0.3-0.7,0.5c-0.1,0.1-0.2,0-0.2-0.2c0-0.3,0.4-0.8,0.7-0.8
				C122.3,147.6,122.5,147.7,122.5,148z"/>
		</g>
	</g>
</g>
<g>
	<g>
		<g>
			<path class="st5" d="M28.8,122.4c-0.3,0.9-1.2,1.5-1.8,1.7c-0.4-0.2-0.9-1-0.6-1.5C26.7,122.3,28.2,122.1,28.8,122.4z"/>
			<path class="st5" d="M26,122.9c0,0.6,0.1,1.1,0.6,1.4c-0.4,0.1-0.8,0.2-1.2,0.3c-0.3,0.1-0.8,0.3-1.1,0.2
				c-0.2-0.1-0.4-0.2-0.3-0.4c0.1-0.3,0.6-0.7,0.9-0.9C25.5,123.3,25.7,123.1,26,122.9z"/>
			<path class="st5" d="M25.8,124.8c-0.2,0.8-1.4,1.1-1.9,1.4c0.7-0.6,0.7-0.8,0.8-1.1C25.1,125.1,25.4,124.9,25.8,124.8z"/>
			<path class="st5" d="M24.8,123.3c-0.8-0.3-1.7,0.4-2.1,0.6c0.9-0.1,1,0,1.4,0C24.3,123.6,24.6,123.5,24.8,123.3z"/>
		</g>
		<path class="st5" d="M22.9,124.7h-0.6H22.9l-0.9,0.6l1.1-0.2l-0.1,0.3l0.5-0.4c0,0-0.3-0.3-0.1-0.6
			C23,124.5,22.9,124.7,22.9,124.7z"/>
		<path class="st5" d="M23.9,124.4c0,0-0.2,0.3,0.1,0.4c-0.2,0.2-0.4,0.3-0.4,0.3s-0.5-0.3-0.1-0.8
			C23.9,124.4,23.9,124.4,23.9,124.4z"/>
	</g>
	<g>
		<path class="st6" d="M30.6,143.9c-0.5-0.2-1.3-0.5-2.4-0.7c-0.4-0.1-0.7-0.2-0.8-0.3l0,0l0,0c0-0.2,0.1-0.3,0.2-0.5
			c0.2-0.1,0.4-0.2,0.7-0.2c0.4,0,0.6,0.1,0.8,0.3c0.2,0.2,0.2,0.2,0.2,0.6l2.4,0.9c0.4-0.9,0.2-2.8-1.1-3.2c-0.7-0.2-1.3-0.4-2-0.4
			c-0.4,0-0.7,0-1.1,0c-0.5,0.1-1.1,0.1-1.6,0.5c-0.4,0.3-0.7,0.7-0.9,1.2c0,0.1-0.3,1-0.2,1h-0.3c-0.2,0-0.2,0-0.3,0h-0.6l0.2,3.2
			l-1.5-3.2h-2.4v3.6l-1.3-3.6h-2.5l-2.4,5.7h1.8l0.3-0.9h2l0.3,0.9h1.8h0.8h0.8v-3.1l2.1,3.2h2v-0.4c0.6,0.4,1.5,0.7,2.7,0.7
			c0.8,0,1.5-0.1,2-0.3s0.9-0.6,1.2-1c0.3-0.4,0.4-0.9,0.4-1.5c0-0.4-0.1-0.9-0.3-1.2C31.4,144.5,31.1,144.2,30.6,143.9z
			 M16.1,146.4l0.6-2.1l0.6,2.1H16.1z M29.2,146.8c-0.2,0.2-0.5,0.3-0.8,0.2c-0.5,0-0.9-0.2-1.1-0.5c-0.2-0.2-0.3-0.5-0.3-0.9
			l-1.4,0.2l-0.1-1.6l0.1,0.1c0.5,0.4,1.3,0.8,2.4,1c0.3,0.1,0.7,0.1,0.9,0.3c0.2,0.1,0.6,0.3,0.6,0.5
			C29.5,146.4,29.4,146.6,29.2,146.8z"/>
		<path class="st6" d="M29,127.4c-0.1,0.3-0.1,0.6-0.2,0.9c0,0,0.1-0.2,0.1-0.3C29,127.9,29,127.6,29,127.4c0.2,0.3,0.4,0.5,0.6,0.8
			c0.2,0.3,0.3,0.5,0.5,0.7c-0.3-0.4-0.5-0.8-0.7-1.2c-0.1-0.1-0.2-0.2-0.2-0.4c0.3,0.1,0.6,0.1,0.9,0.2c0-0.1-0.1,0-0.2-0.1
			c-0.3-0.1-0.5-0.1-0.7-0.2c0.2-0.2,0.5-0.4,0.8-0.5c0.3-0.2,0.6-0.3,0.7-0.5c-0.5,0.3-1.1,0.7-1.6,0.9c0-0.2,0.1-0.4,0.1-0.6
			c0-0.1,0-0.1,0-0.2c0-0.2,0-0.1,0,0c-0.1,0.3-0.1,0.6-0.2,0.8c-0.3-0.5-0.7-1.1-1.1-1.5c0.3,0.5,0.7,1.1,0.9,1.6
			c-0.3,0-0.6-0.1-0.9-0.2c0.1,0,0.1,0,0.2,0c0.2,0.1,0.5,0.1,0.7,0.2c-0.5,0.4-1.1,0.7-1.5,1.1C27.9,128.1,28.5,127.7,29,127.4z"/>
		<path class="st6" d="M28.1,129.9c0.1,0,0.2-0.1,0.2-0.2c0-0.1-0.1-0.1-0.1-0.2c-0.1-0.1-0.2-0.2-0.3-0.4c-0.1-0.1-0.1-0.2-0.2-0.2
			s-0.1,0.1-0.2,0.1c-0.4,0.3-0.9,0.7-1.3,1c0.2,0.3,0.4,0.5,0.6,0.8C27.2,130.6,27.7,130.2,28.1,129.9z"/>
		<path class="st6" d="M26.3,131.2c-0.2-0.2-0.3-0.4-0.5-0.6c-0.2,0.2-0.4,0.3-0.6,0.5c0.2,0.2,0.3,0.4,0.5,0.6
			C25.9,131.5,26.1,131.3,26.3,131.2z"/>
		<path class="st6" d="M10.9,139.8c-0.2-0.4-0.5-0.7-0.9-0.9c-1.3-0.9-3.1-0.5-4,0.8s-0.6,3.1,0.7,4c-0.8-0.9-0.9-2.3-0.1-3.5
			c0.9-1.3,2.6-1.7,3.8-0.9C10.5,139.4,10.7,139.6,10.9,139.8z"/>
		<path class="st6" d="M11.7,138.9c-0.3-0.3-0.6-0.6-1-0.9c-1.9-1.2-4.3-0.7-5.5,1.1c-1.1,1.5-0.7,3.2,0.5,4.5
			c-1-1.2-1.2-2.7-0.2-4.1c1.2-1.8,3.7-2.4,5.5-1.1C11.3,138.6,11.5,138.7,11.7,138.9z"/>
		<path class="st6" d="M9.5,141.8c0.1,0,0.2,0,0.2-0.2c0-0.1,0-0.2-0.2-0.2c-0.1,0-0.2,0-0.2,0.2C9.3,141.7,9.4,141.8,9.5,141.8z"/>
		<path class="st6" d="M8.3,141.4c-0.1,0-0.2,0-0.2,0.2c0,0.1,0,0.2,0.2,0.2c0.1,0,0.2,0,0.2-0.2C8.5,141.5,8.4,141.4,8.3,141.4z"/>
		<path class="st6" d="M29,124.4c3,1.8,4.6,5.3,3.8,8.8c-0.6,2.7-2.5,4.8-4.8,5.8c0.4-0.2,0.7-0.5,1-0.8s0.7-0.6,1-1
			c0.3-0.3,0.5-0.6,0.7-1c0.3-0.4,0.5-0.8,0.6-1.3c0.1-0.4,0.3-0.7,0.4-1.1c0,0.2-0.3,0.4-0.4,0.5c-0.1,0.2-0.2,0.3-0.4,0.5
			c-0.1,0.1-0.3,0.3-0.4,0.5c-0.4,0.5-0.9,1-1.4,1.4c-0.2,0.2-0.5,0.4-0.8,0.6c-0.6,0.4-1.2,0.7-1.9,1c-0.1-0.8-0.1-1.8-0.8-1.9
			c-0.3,0-0.5,0.2-0.7,0.3l-0.1,0.1c-0.1,0.1-0.2,0.2-0.4,0.3c0.1,0,0.1-0.3,0.1-0.3c0-0.1,0-0.3,0.1-0.4c0-0.1,0.1-0.3,0.2-0.4
			c0,0,0.1,0,0.1-0.1l0.1-0.1l0,0c0.1,0,0.4-0.3,0.4-0.4c0.1-0.1,0.3-0.3,0.5-0.4c0.3-0.2,0.7-0.5,0.7-0.9l0,0V134
			c0-0.1,0-0.1,0-0.2l-0.1-0.1l-0.1-0.1c-0.4-0.3-0.7-0.5-1.2-0.6l0,0h-0.1H25c-0.1,0-0.2-0.1-0.2-0.2c0,0,0,0,0-0.1l0,0
			c0-0.1-0.1-0.1-0.1-0.1h-0.1l0,0h-0.1l0,0c0.2-0.2,0.4-0.3,0.6-0.4c-0.1-0.2-0.2-0.3-0.4-0.5c-0.1,0.1-0.2,0.1-0.3,0.2l0,0
			c-0.1,0.1-0.1,0-0.2,0c-0.2,0-0.4,0.1-0.5,0.3c-0.2-0.2-0.1-0.1-0.4-0.1c0-0.1,0.1-0.1,0.1-0.1c-0.1-0.1-0.4-0.1-0.5-0.1l0,0h-0.1
			l0,0c-0.4,0.1-0.6,0.2-0.9,0.4c0,0,0,0.1-0.1,0.1l0,0c0,0.1-0.1,0.2-0.2,0.3l0,0c0,0.1-0.1,0.1-0.1,0.2l0,0
			c-0.1,0.7,0,1.4,0.5,1.7c-0.1,0-0.1,0.8-0.1,0.8c0,0.1-0.1,0.2-0.1,0.4s0,0.4,0,0.5c0,0.3-0.1,0.6-0.2,0.8
			c-0.1,0.3-0.2,0.5-0.4,0.8c-0.1,0.1-0.1,0.2-0.2,0.3c-0.4-0.2-0.9-0.4-1.3-0.7c-0.5-0.3-1-0.7-1.4-1.1c0-1.2,0-2.7,0-3.7
			c0-0.6,0-1.2,0-1.7c0-0.4,0-0.9-0.1-1.3c0-0.1,0-0.3,0.1-0.4c0.1,0,0.1,0.1,0.1,0.1s0,0.1,0.1,0.1c0.1,0.3,0.2,0.6,0.3,0.9
			c0.2,0.6,0.4,1.2,0.6,1.9c0.1,0.4,0.3,0.8,0.4,1.3c0.1,0.2,0.1,0.4,0.2,0.5v0.1c0-0.2-0.1-0.4-0.1-0.7c-0.1-0.6-0.3-1.3-0.5-1.9
			c-0.1-0.5-0.3-1-0.5-1.5c-0.1-0.3-0.1-0.5-0.2-0.8c0-0.1,0-0.1,0-0.2c0-0.1,0.1-0.1,0.1-0.2c0.5-0.4,0.9-0.9,1.3-1.4
			c0.1-0.1,0.1-0.1,0.1-0.2h-0.1c0,0-0.1,0-0.1,0.1c-0.3,0.2-0.6,0.5-0.9,0.7c-0.1,0.1-0.3,0.2-0.3,0.3c0,0-0.1,0.1-0.1,0.2
			c0,0.1-0.1,0.2-0.1,0.2c-0.1,0-0.2-0.1-0.3-0.2c-0.2-0.2-0.5-0.4-0.7-0.6c-0.3-0.2-0.5-0.5-0.8-0.7c0.1-0.2,0.2-0.3,0.3-0.5
			c1.2-2,3-3.3,5-3.8c-2.5,0.3-4.9,1.7-6.3,4.1c-1.1,1.7-1.5,3.6-1.3,5.5c-1.7-1.4-3.9-2.2-6.2-1.9c-4.5,0.5-7.8,4.5-7.3,9
			c0.1,1,0.4,1.9,0.8,2.8c0.7,1.5,1.9,2.7,3.3,3.5c0.2,0.5,0.4,1.3,0.5,1.7c0.3,0.1,0.8,0.2,1.1,0.4c0,0.1,0,0.1,0.1,0.3
			c0.4,0.3,1,0.5,1.2,0c-0.4-0.2-0.5,0.1-0.8-0.1c-0.4-0.2-0.1-1,0.3-1s0.3,0.4,0.7,0.4c0-0.5-0.5-0.6-1-0.6
			c-0.1,0.1-0.2,0.3-0.4,0.3c-0.7-0.1-0.7-0.6-0.8-1c0.5,0.2,1.1,0.4,1.6,0.5C8,147,8.5,147,8.9,147s0.7,0,1.1-0.1
			c0.5-0.1,0.9-0.1,1.3-0.3c0.3-0.1,0.7-0.2,1-0.3c-0.2,0.1-0.4,0-0.6,0c-0.2,0-0.4,0-0.6,0c-0.1,0-0.2,0-0.3,0v-0.1
			c0-0.5,0.1-1.2,0.1-1.7c0.1,0,0.2,0.1,0.3,0.1c0.1,0.7,1.3,0.3,1.2-0.3c0.4-0.4,0.9-0.9,1.3-1.3c-0.1-0.4-0.2-0.6-0.2-1
			c0.1-0.1,0.3-0.2,0.4-0.3c0-0.1,0-0.2,0-0.4c0.2,1.2,0,2.4-0.7,3.5c-0.3,0.4-0.6,0.8-1,1.1c0.6-0.4,1.2-1,1.7-1.6
			c1.6-2.5,1.1-5.7-1.2-7.3s-5.5-0.9-7.1,1.5c1.6-1.6,4.2-1.9,6.2-0.5c1,0.7,1.7,1.6,2,2.7c-0.1-0.1-0.2-0.2-0.5-0.2
			c0,0.5,0.4,0.4,0.4,0.8c0,0.5-1,0.7-1.2,0.3c-0.1-0.4,0.3-0.5,0-0.9c-0.5,0.3-0.4,0.9-0.1,1.4c0.2,0.1,0.4,0,0.5,0.2
			c0.3,0.9-0.5,1.2-0.8,1.7c-0.1-0.1-0.4,0-0.6,0.1c-0.7-0.3-0.4,0-0.6-0.5c-0.3-0.2-0.9,0.1-1.3,0c0,0,0-0.2,0-0.3
			c0.1,0,0.4,0,0.6,0c0.2-0.1,0.1-0.4,0.1-0.7c0.1,0,0.2,0,0.2,0h0.1v-0.9h-0.3c0-0.3,0.1-0.6-0.1-0.7c-0.2-0.2-0.7,0-1.1-0.1v-0.3
			c-0.1,0-0.1,0-0.2,0c0,0,0,0-0.1,0v0.3c-0.4,0.1-1.3-0.2-1.5,0c-0.1,0.2,0,0.4-0.1,0.7H7.1v0.9h0.3c0,0.2,0,0.3,0,0.5
			c0,0.1,0,0.1,0.1,0.1c0.1,0.1,0.8,0,1,0.1c0,0,0,0.2,0,0.3c-0.4,0.1-1.1-0.3-1.3-0.1l-0.1,0.1l0,0c-0.4,0.6-0.7,1-1,1.3
			c-0.2-0.1-0.4-0.2-0.6-0.4c-1.3-1.2-2.2-2.9-2.4-5c-0.4-4.1,2.1-7.7,6.3-8.1c1.9-0.2,3.8,0.2,5.3,1.2c0.3,2.6,1.7,5,4.1,6.5
			c0.9,0.6,1.9,0.9,2.9,1.2c1.4,0.3,2.8,0.2,4.2-0.2c3.8,0,7.2-2.6,8-6.4C34.5,129.7,32.5,126,29,124.4z M13.3,142.5
			c0.1,0,0.2,0,0.2,0.2c0,0.1-0.1,0.2-0.2,0.3c-0.1,0-0.2,0-0.2-0.2S13.2,142.5,13.3,142.5z M11.8,144c0.1,0,0.3,0,0.3,0.2
			c0,0.1-0.1,0.3-0.2,0.3c-0.1,0-0.3,0-0.3-0.2S11.7,144,11.8,144z M6.1,146.9c0.1,0,0.2,0.1,0.1,0.3c0,0.1-0.1,0.2-0.3,0.1
			c-0.1,0-0.2-0.1-0.1-0.3C5.9,147,6,146.9,6.1,146.9z M9.4,141.2c0.8-0.2,0.5,1.1-0.1,0.7C9,141.7,9.1,141.3,9.4,141.2z M8.2,141.1
			c0.3-0.1,0.5,0.1,0.5,0.4c0,0.2-0.2,0.4-0.4,0.4C7.8,141.9,7.7,141.2,8.2,141.1z M8.3,142.6c0-0.1,0.1-0.2,0.2-0.2
			c0.1,0,0.5,0,0.7,0c0.3,0,0.5,0,0.5,0.2s-0.3,0.2-0.7,0.2C8.8,142.7,8.3,142.8,8.3,142.6z M7.1,144.5c0,0.2,0,0.5,0,0.7
			c-0.2-0.1-0.4-0.2-0.5-0.2C6.8,144.8,7,144.7,7.1,144.5z M16.7,127.4c0.2,0.2,0.4,0.4,0.6,0.6s0.4,0.4,0.7,0.6
			c0.1,0,0.1,0.1,0.2,0.1c0,0,0,0,0,0.1c-0.1,0-0.2,0.1-0.2,0.1c-0.1,0-0.1-0.1-0.2-0.1s-0.1,0.1-0.1,0.2c0,0.1-0.1,0.2-0.1,0.3
			l0.1,0.1l0.1,0.1c0.1,0,0.1,0,0.2,0c-0.1,1.1-0.1,2.2-0.2,3.3c0,0.8-0.1,1.9-0.1,2.8C15.8,133.3,15.3,130.2,16.7,127.4z
			 M24.8,133.3L24.8,133.3c0.1,0,0.1,0,0.2,0l0,0h0.1l0,0l0,0l0.1,0.2c0.1,0.4-0.5,0.7-0.9,0.6c0.2-0.4,0.1-0.8,0-1.1
			C24.6,133.1,24.7,133.1,24.8,133.3z"/>
		<path class="st6" d="M8.8,139.9c0,0.2,0.1,0.3,0.2,0.3c0.2,0,0.3-0.1,0.3-0.2c0-0.2-0.1-0.3-0.2-0.3C9,139.7,8.8,139.8,8.8,139.9z
			"/>
	</g>
</g>
<g>
	<g>
		<path class="st0" d="M120.5,9"/>
		<g>
			<path class="st0" d="M180.9,2.6"/>
			<path class="st0" d="M180.9,26.6"/>
		</g>
		<g>
			<polyline class="st0" points="53.2,13.5 53.2,5.3 61.3,5.3 			"/>
			<line class="st7" x1="53.2" y1="15.7" x2="53.2" y2="13.5"/>
			<polyline class="st0" points="61.3,23.9 53.2,23.9 53.2,15.7 			"/>
			<line class="st0" x1="61.3" y1="5.3" x2="61.3" y2="2.6"/>
			<line class="st0" x1="61.3" y1="26.6" x2="61.3" y2="23.9"/>
			<polyline class="st0" points="186.5,13.5 186.5,5.3 178.5,5.3 			"/>
			<line class="st0" x1="186.5" y1="15.7" x2="186.5" y2="13.5"/>
			<polyline class="st0" points="178.5,23.9 186.5,23.9 186.5,15.7 			"/>
			<line class="st0" x1="178.5" y1="5.3" x2="178.5" y2="2.6"/>
			<line class="st0" x1="178.5" y1="26.6" x2="178.5" y2="23.9"/>
		</g>
		<line class="st0" x1="61.3" y1="2.6" x2="178.5" y2="2.6"/>
		<line class="st0" x1="178.5" y1="26.6" x2="61.3" y2="26.6"/>
	</g>
	<text transform="matrix(1 0 0 1 64.2229 19.1005)" class="st8 st9">C’Space 2023</text>
</g>
</svg>
