<?xml version="1.0" encoding="utf-8"?>
<!-- Generator: Adobe Illustrator 25.2.0, SVG Export Plug-In . SVG Version: 6.00 Build 0)  -->
<svg version="1.1" baseProfile="basic" id="Calque_1"
	 xmlns="http://www.w3.org/2000/svg" xmlns:xlink="http://www.w3.org/1999/xlink" x="0px" y="0px" viewBox="0 0 423.1 283.5"
	 xml:space="preserve">
<style type="text/css">
	.st0{fill:none;stroke:#FF0000;stroke-width:2.834646e-02;stroke-miterlimit:10;}
	.st1{fill:none;stroke:#0000FF;stroke-width:2.834646e-02;stroke-miterlimit:10;}
	.st2{fill:none;stroke:#FF0000;stroke-width:2.834646e-02;stroke-linecap:round;stroke-linejoin:round;stroke-miterlimit:10;}
	.st3{fill:none;}
	.st4{fill:#FFFFFF;}
	.st5{fill-rule:evenodd;clip-rule:evenodd;fill:#1D1D1B;}
	.st6{fill:#1D1D1B;}
</style>
<path class="st0" d="M414.6,283.5H8.5c-4.7,0-8.5-3.8-8.5-8.5V8.5C0,3.8,3.8,0,8.5,0h406.1c4.7,0,8.5,3.8,8.5,8.5V275
	C423.1,279.7,419.3,283.5,414.6,283.5z"/>
<g>
	<path class="st0" d="M212.7,16.2"/>
	<path class="st0" d="M335.9,43.2"/>
	<path class="st0" d="M335.9,11.4"/>
	<g>
		<polyline class="st0" points="329.3,43.1 340.7,43.1 340.7,9.1 329.3,9.1 		"/>
		<line class="st0" x1="329.3" y1="9.1" x2="329.3" y2="4.9"/>
		<line class="st0" x1="329.3" y1="47.4" x2="329.3" y2="43.1"/>
	</g>
	<g>
		<polyline class="st0" points="82.4,22.6 82.4,9.1 93.8,9.1 		"/>
		<line class="st1" x1="82.4" y1="29.7" x2="82.4" y2="22.6"/>
		<polyline class="st0" points="93.8,43.2 82.4,43.2 82.4,29.7 		"/>
		<line class="st0" x1="93.8" y1="9.1" x2="93.8" y2="4.9"/>
		<line class="st0" x1="93.8" y1="47.4" x2="93.8" y2="43.2"/>
	</g>
	<line class="st0" x1="93.8" y1="4.9" x2="329.3" y2="4.9"/>
	<line class="st0" x1="329.3" y1="47.4" x2="93.8" y2="47.4"/>
</g>
<g>
	<path d="M137.5,17.4v2.8h-6.3c-3.1,0-4.5,1.6-4.5,5.3c0,3.7,1.3,5.3,4.5,5.3h6.3v2.8h-6.3c-4.7,0-7.3-2.7-7.3-8.1
		c0-5.4,2.6-8.1,7.3-8.1H137.5z"/>
	<path d="M143.6,15.4v3.9c0,2.3-1,3.4-3.1,3.4h-0.8v-2.1h0.3c0.6,0,0.9-0.3,0.9-1v-4.2H143.6z"/>
	<path d="M159.2,17.4v2.8h-8.3c-1.5,0-2.1,0.8-2.1,1.9c0,1,0.5,1.9,2.4,1.9h3.8c4.4,0,5.4,2.4,5.4,4.8c0,2.7-1.5,4.8-5.2,4.8h-9
		v-2.8h9.1c1.5,0,2.2-0.8,2.2-2c0-1.1-0.6-2-2.5-2h-3.8c-4.3,0-5.3-2.4-5.3-4.7c0-2.7,1.4-4.7,5-4.7H159.2z"/>
	<path d="M171.5,20.9c3.4,0,5.5,2.1,5.5,6.3s-2.1,6.3-5.5,6.3h-5.6v5.1h-2.5V26.3c0-3.6,1.6-5.4,4.7-5.4H171.5z M165.9,31.1h5.4
		c2.2,0,3.2-1.1,3.2-3.9s-1-3.9-3.2-3.9h-2.5c-2.1,0-2.9,0.9-2.9,3.1V31.1z"/>
	<path d="M188.1,20.9c3.2,0,4.4,1.8,4.4,4.2v6c0,1.8-0.5,2.5-2.6,2.5H184c-3,0-4.2-1.5-4.2-3.9c0-2.3,1.2-3.6,4.3-3.6h6v-1
		c0-1-0.6-1.8-1.9-1.8h-7.6v-2.4H188.1z M190.1,30.5v-2.4h-6c-1.3,0-1.8,0.6-1.8,1.5s0.5,1.5,1.8,1.5h5.3
		C189.9,31.1,190.1,30.9,190.1,30.5z"/>
	<path d="M207.6,20.9v2.4h-6.3c-2.2,0-3.2,1.2-3.2,3.9s1,3.9,3.2,3.9h6.3v2.5h-6.5c-3.4,0-5.5-2.1-5.5-6.3s2.1-6.3,5.5-6.3H207.6z"
		/>
	<path d="M218.9,20.9c3,0,4.3,1.4,4.3,3.9c0,2.3-1.2,3.6-4.3,3.6h-6v0.9c0,1,0.6,1.8,1.9,1.8h7.8v2.5h-7.8c-3.2,0-4.4-1.8-4.4-4.2
		v-4.3c0-2.4,1.2-4.2,4.4-4.2H218.9z M212.8,26.5h6c1.4,0,1.9-0.6,1.9-1.5c0-1-0.6-1.6-1.8-1.6h-4.1c-1.4,0-1.9,0.8-1.9,1.8V26.5z"
		/>
	<path d="M242.3,17.4c3.1,0,4.9,1.6,4.9,4.6c0,2.4-1.2,3.7-3.8,4.3l-6.7,1.5c-1.1,0.3-1.3,0.9-1.3,1.8v0.8c0,0.3,0.1,0.3,0.3,0.3
		h11.1v2.8h-12.9c-0.9,0-1.3-0.4-1.3-1.3v-2.4c0-2.6,0.8-4,3.6-4.7l6.8-1.6c1.2-0.3,1.5-0.8,1.5-1.6c0-1.1-0.7-1.8-2-1.8H233v-2.8
		H242.3z"/>
	<path d="M264,25.5c0,5.4-2.6,8.3-7.3,8.3c-4.7,0-7.3-2.9-7.3-8.3c0-5.4,2.6-8.4,7.3-8.4C261.3,17.1,264,20,264,25.5z M252.1,25.5
		c0,3.7,1.4,5.5,4.5,5.5c3.2,0,4.5-1.8,4.5-5.5c0-3.7-1.4-5.5-4.5-5.5C253.5,20,252.1,21.8,252.1,25.5z"/>
	<path d="M276.6,17.4c3.1,0,4.9,1.6,4.9,4.6c0,2.4-1.2,3.7-3.8,4.3l-6.7,1.5c-1.1,0.3-1.3,0.9-1.3,1.8v0.8c0,0.3,0.1,0.3,0.3,0.3
		h11.1v2.8h-12.9c-0.9,0-1.3-0.4-1.3-1.3v-2.4c0-2.6,0.8-4,3.6-4.7l6.8-1.6c1.2-0.3,1.5-0.8,1.5-1.6c0-1.1-0.7-1.8-2-1.8h-9.4v-2.8
		H276.6z"/>
	<path d="M294.2,17.4c3.1,0,4.9,1.6,4.9,4.6c0,2.4-1.2,3.7-3.8,4.3l-6.7,1.5c-1.1,0.3-1.3,0.9-1.3,1.8v0.8c0,0.3,0.1,0.3,0.3,0.3
		h11.1v2.8h-12.9c-0.9,0-1.3-0.4-1.3-1.3v-2.4c0-2.6,0.8-4,3.6-4.7l6.8-1.6c1.2-0.3,1.5-0.8,1.5-1.6c0-1.1-0.7-1.8-2-1.8H285v-2.8
		H294.2z"/>
</g>
<g>
	<line class="st0" x1="211.5" y1="202.6" x2="353.1" y2="202.6"/>
	<line class="st0" x1="353.1" y1="274.7" x2="267" y2="274.7"/>
	<g id="LINE_16_">
		<line class="st2" x1="369.3" y1="209.8" x2="369.3" y2="274.7"/>
	</g>
	<g id="LINE_15_">
		<line class="st2" x1="365.2" y1="202.6" x2="365.2" y2="267.5"/>
	</g>
	<g id="LINE_14_">
		<line class="st2" x1="360.9" y1="209.8" x2="360.9" y2="274.7"/>
	</g>
	<g id="LINE_13_">
		<line class="st2" x1="356.8" y1="202.6" x2="356.8" y2="267.5"/>
	</g>
	<g id="LINE_12_">
		<line class="st2" x1="352.6" y1="209.8" x2="352.6" y2="274.7"/>
	</g>
	<g id="LINE_11_">
		<line class="st2" x1="348.5" y1="202.6" x2="348.5" y2="267.5"/>
	</g>
	<g id="LINE_10_">
		<line class="st2" x1="344.6" y1="209.8" x2="344.6" y2="274.7"/>
	</g>
	<g id="LINE_9_">
		<line class="st2" x1="340.5" y1="202.6" x2="340.5" y2="267.5"/>
	</g>
	<g id="LINE_8_">
		<line class="st2" x1="335.9" y1="209.8" x2="335.9" y2="274.7"/>
	</g>
	<g id="LINE_7_">
		<line class="st2" x1="331.8" y1="202.6" x2="331.8" y2="267.5"/>
	</g>
	<g id="LINE_6_">
		<line class="st2" x1="327.4" y1="209.8" x2="327.4" y2="274.7"/>
	</g>
	<g id="LINE_5_">
		<line class="st2" x1="323.3" y1="202.6" x2="323.3" y2="267.5"/>
	</g>
	<g id="LINE_4_">
		<line class="st2" x1="318.8" y1="209.8" x2="318.8" y2="274.7"/>
	</g>
	<g id="LINE_3_">
		<line class="st2" x1="314.7" y1="202.6" x2="314.7" y2="267.5"/>
	</g>
	<g id="LINE_2_">
		<line class="st2" x1="310" y1="209.8" x2="310" y2="274.7"/>
	</g>
	<g id="LINE_1_">
		<line class="st2" x1="305.9" y1="202.6" x2="305.9" y2="267.5"/>
	</g>
	<line class="st0" x1="353.1" y1="202.6" x2="369.3" y2="202.6"/>
	<line class="st0" x1="353.1" y1="274.7" x2="369.3" y2="274.7"/>
	<line class="st0" x1="211.5" y1="202.6" x2="236.6" y2="224.6"/>
	
		<rect x="266.8" y="243.1" transform="matrix(-0.7071 -0.7071 0.7071 -0.7071 309.6087 623.2899)" class="st0" width="34.2" height="8.8"/>
	<line class="st0" x1="227.9" y1="235.6" x2="236.6" y2="224.6"/>
	<line class="st0" x1="227.9" y1="235.6" x2="267" y2="274.7"/>
</g>
<g>
	<line class="st0" x1="211.5" y1="202.6" x2="70" y2="202.6"/>
	<line class="st0" x1="70" y1="274.7" x2="156" y2="274.7"/>
	<g id="LINE_32_">
		<line class="st2" x1="53.8" y1="209.8" x2="53.8" y2="274.7"/>
	</g>
	<g id="LINE_31_">
		<line class="st2" x1="57.9" y1="202.6" x2="57.9" y2="267.5"/>
	</g>
	<g id="LINE_30_">
		<line class="st2" x1="62.1" y1="209.8" x2="62.1" y2="274.7"/>
	</g>
	<g id="LINE_29_">
		<line class="st2" x1="66.2" y1="202.6" x2="66.2" y2="267.5"/>
	</g>
	<g id="LINE_28_">
		<line class="st2" x1="70.5" y1="209.8" x2="70.5" y2="274.7"/>
	</g>
	<g id="LINE_27_">
		<line class="st2" x1="74.6" y1="202.6" x2="74.6" y2="267.5"/>
	</g>
	<g id="LINE_26_">
		<line class="st2" x1="78.5" y1="209.8" x2="78.5" y2="274.7"/>
	</g>
	<g id="LINE_25_">
		<line class="st2" x1="82.6" y1="202.6" x2="82.6" y2="267.5"/>
	</g>
	<g id="LINE_24_">
		<line class="st2" x1="87.1" y1="209.8" x2="87.1" y2="274.7"/>
	</g>
	<g id="LINE_23_">
		<line class="st2" x1="91.2" y1="202.6" x2="91.2" y2="267.5"/>
	</g>
	<g id="LINE_22_">
		<line class="st2" x1="95.6" y1="209.8" x2="95.6" y2="274.7"/>
	</g>
	<g id="LINE_21_">
		<line class="st2" x1="99.7" y1="202.6" x2="99.7" y2="267.5"/>
	</g>
	<g id="LINE_20_">
		<line class="st2" x1="104.3" y1="209.8" x2="104.3" y2="274.7"/>
	</g>
	<g id="LINE_19_">
		<line class="st2" x1="108.4" y1="202.6" x2="108.4" y2="267.5"/>
	</g>
	<g id="LINE_18_">
		<line class="st2" x1="113.1" y1="209.8" x2="113.1" y2="274.7"/>
	</g>
	<g id="LINE_17_">
		<line class="st2" x1="117.2" y1="202.6" x2="117.2" y2="267.5"/>
	</g>
	<line class="st0" x1="70" y1="202.6" x2="53.8" y2="202.6"/>
	<line class="st0" x1="70" y1="274.7" x2="53.8" y2="274.7"/>
	<line class="st0" x1="211.5" y1="202.6" x2="186.4" y2="224.6"/>
	
		<rect x="122.1" y="243.1" transform="matrix(0.7071 -0.7071 0.7071 0.7071 -134.2656 170.9005)" class="st0" width="34.2" height="8.8"/>
	<line class="st0" x1="195.1" y1="235.6" x2="186.4" y2="224.6"/>
	<line class="st0" x1="195.1" y1="235.6" x2="156" y2="274.7"/>
</g>
<rect x="6.8" y="51.5" class="st3" width="409.6" height="147"/>
<rect x="6.8" y="51.5" class="st3" width="409.6" height="147"/>
<g>
	<g id="Logo_2_">
		<path d="M400.3,240.8c-3.1,0-6.5-2.7-6.5-7.1v-14.5h-1v7.7c-4.4,1-7.7,4.6-7.7,9c0,5.1,4.5,9.3,10,9.3c4.2,0,7.8-2.4,9.3-5.8
			C403.4,240.2,401.8,240.8,400.3,240.8"/>
		<path d="M395.1,226.7c0.4-0.1,5.6,0,8.5,4.6c1,1.5,0,3.4-3,3.5C399.6,234.8,395.7,233.8,395.1,226.7"/>
		<path d="M388.6,248c-2.6,0-5.2,1.1-5.2,4.9v5.2h2.3v-5.2c0-2.6,1.7-3.2,2.9-3.2s2.9,0.6,2.9,3.2v5.2h2.3v-5.2
			C393.8,249.1,391.2,248,388.6,248"/>
		<path d="M372.2,253.2c0,2.4,1.1,4.9,4.9,4.9h4.7v-1.7h-4.1c-2.6,0-3.1-2-3.1-3.2c0-1.2,0.5-3.2,3.1-3.2h4.1v-1.7h-4.7
			C373.3,248.3,372.2,250.7,372.2,253.2"/>
		<path d="M403.2,252.5h-5.6c0-0.8,0.1-3,2.8-3C403.6,249.5,403.2,252.5,403.2,252.5 M397.6,254h8.1c0-0.3,0-0.7,0-0.7
			c0-4.4-2.9-5.3-5.5-5.3c-3.7,0-5,2.6-5,5.1v0.1c0,2.4,1.1,4.9,4.9,4.9h5.3v-1.7h-4.7C398.5,256.4,397.8,255.1,397.6,254"/>
		<path d="M412.9,252.4h-1.3c-1.2,0-2-0.4-2-1.3c0-0.8,0.6-1.2,1.8-1.2h5.1v-1.7h-5.1c-2.1,0-4.4,0.3-4.4,2.9c0,2.8,3.1,2.7,4,2.7
			h1.3c1.2,0,2,0.4,2,1.3c0,0.8-0.6,1.2-1.8,1.2h-5.1v1.7h5.1c2.1,0,4.4-0.3,4.4-2.9C416.9,252.4,413.8,252.4,412.9,252.4"/>
	</g>
</g>
<g>
	<g>
		<g>
			<path d="M196.8,253.9c-0.9-0.6-1.8-1.2-2.7-1.9c-0.4-0.3-0.1-0.7,0-1c0.5-1.8,1.2-3.6,2.3-5.2c-0.5,0.3-1.2,0.5-1.5,1.1
				c-0.6,1.4-1.2,2.8-1.7,4c-0.4-0.3-0.9-0.7-1.4-1.2c0,0,0,0,0,0c-0.4,0.6-0.4,0.6,0.1,1.1c0.3,0.3,0.5,0.6,0.8,0.8
				c0.5,0.3,0.4,0.8,0.3,1.2c0,0.8-0.1,1.6-0.1,2.5c0,0.7,0.1,1.5,0.2,2.2c0,0.2,0.1,0.5,0.1,0.7c0,0-0.1,0.1-0.1,0.1
				c-1.2-0.8-2.4-1.5-3.6-2.3c-0.2,0.5-0.1,0.8,0.3,1.1c1.1,0.8,2.2,1.5,3.5,2c0.1,0,0.3,0.2,0.3,0.3c0.6,1.2,1.1,2.4,1.7,3.6
				c0.3,0.7,0.8,1.2,1.3,1.9c-1.4-0.2-2.6-0.7-3.8-1.2c0.5,0.6,0.9,1.2,1.7,1.5c0.9,0.3,1.8,0.4,2.6,0.7c0.2,0.1,0.4,0.2,0.6,0.3
				c1,0.8,1.9,1.8,3,2.5c0.6,0.4,1.3,0.6,2,0.9c0.4,0.2,0.9,0.2,1.3,0.3c-1.9-1-3.7-2.2-5.3-3.8c0.4,0,0.7,0.1,1,0.1
				c0.3,0,0.6,0,0.9,0s0.6-0.1,0.9,0.3c1,1.4,2.2,2.6,3.7,3.5c0.2,0.1,0.4,0.3,0.6,0.5c0,0,0,0.1,0,0.1c-0.4,1-0.2,0.8-1.4,0.6
				c-2.5-0.5-4.9-1.4-7.2-2.6c-2.2-1.1-4.1-2.6-5.7-4.5c-1.6-1.8-2.6-3.8-3-6.2c-0.3-1.8,0-3.6,0.6-5.4c0.5-1.5,1.4-2.8,2.4-4
				c1.7-2.1,3.9-3.6,6.3-4.8c2.2-1.1,4.6-1.9,7-2.3c1.7-0.3,3.3-0.5,5-0.6c1.4,0,2.8,0,4.3,0.1c0.7,0,1.4,0.2,2.1,0.3
				c0.1,0,0.3,0.2,0.3,0.3c0,0.2,0,0.4,0,0.5c-1.3-0.1-2.5-0.2-3.7-0.3c-1.6-0.2-3.1,0-4.6,0.1c-2.5,0.2-4.9,0.7-7.2,1.6
				c-0.8,0.3-1.6,0.7-2.4,1c-0.1,0.1-0.3,0.2-0.3,0.4c-0.6,1.5-0.9,3.1-1,4.8c-0.1,1-0.1,2-0.2,3.1c0,0.3,0.1,0.6,0.1,1
				C196.9,253.8,196.9,253.9,196.8,253.9z"/>
			<path d="M212.1,269.5c0.4,0.5,0.8,0.8,1.1,1.3c0.4,0.7,0.6,1.6,0.4,2.4c0,0.1-0.2,0.2-0.3,0.4c-0.1-0.1-0.3-0.3-0.4-0.4
				c-0.2-1.1-0.9-1.8-1.8-2.4c-0.6-0.3-0.9-0.3-1.3,0.3c-0.7,1.1-1.7,1.6-3,1.8c-0.2,0-0.5,0.1-0.7,0.1c-0.1,0-0.3-0.1-0.4-0.2
				c0-0.1,0-0.3,0.1-0.4c0.4-0.3,0.7-0.5,1.1-0.7c0.8-0.3,1.5-1,1.4-1.7c-0.1-0.7-0.4-1.3-0.7-1.9c-0.4-0.8-1-1.6-0.8-2.7
				c0-0.1,0-0.2,0.1-0.3c0.1-0.2,0.3-0.3,0.4-0.4c0.1,0.2,0.3,0.3,0.3,0.5c0.3,1,0.8,1.7,1.6,2.4c0.2,0.2,0.6,0.3,0.9,0.3
				c1.4,0.2,2.7-0.2,3.7-1.3c0.1-0.1,0.2-0.2,0.3-0.3c0.1-0.1,0.2-0.1,0.5-0.3c0,0.3,0,0.5,0,0.7c-0.3,1-1.1,1.6-1.8,2.2
				C212.6,269.2,212.4,269.3,212.1,269.5z"/>
			<path d="M193.8,252.9c1,0.6,2,1.2,3,1.8c0.1,0.1,0.3,0.2,0.3,0.4c0.3,1.5,0.6,2.9,0.8,4.4c0,0.1,0,0.1,0,0.3
				c-1.2-0.3-2.4-0.5-3.5-0.8c-0.2,0-0.3-0.3-0.4-0.4c-0.5-1.7-0.4-3.4-0.4-5.1C193.7,253.3,193.7,253.1,193.8,252.9z"/>
			<path d="M194.4,259.9c0.7,0.1,1.5,0.3,2.2,0.4c0.4,0.1,0.8,0.1,1.2,0.2c0.2,0,0.4,0.1,0.4,0.3c0.3,0.8,0.6,1.7,1,2.4
				c0.4,0.8,0.8,1.6,1.3,2.4c-1,0-1.9,0-2.7-0.2c-0.3-0.1-0.6-0.5-0.8-0.9C196,263.1,195,261.6,194.4,259.9z"/>
			<path d="M204.5,260c-0.6,0-1.1,0.1-1.7,0c-1.1-0.2-1.4-1.3-0.9-2.1c0.7-1.1,1.9-1.6,3.1-1.9c0.3-0.1,0.6,0.2,0.6,0.6
				c0,0.4-0.2,0.5-0.6,0.6c-0.9,0.1-1.6,0.4-2,1.2c-0.3,0.5-0.1,0.8,0.4,0.8c0.5,0,1.1-0.1,1.6-0.1c0.7,0,1.4,0.4,1.5,0.9
				c0.2,0.7,0.1,1.3-0.4,1.8c-0.8,0.8-1.8,1.1-2.8,1.2c-0.4,0-0.6-0.1-0.7-0.6c0-0.4,0.3-0.6,0.7-0.6c0.5,0,0.9,0,1.3-0.3
				c0.3-0.2,0.6-0.5,0.9-0.7c0.1-0.1,0.1-0.3,0.1-0.5c0-0.1-0.2-0.2-0.4-0.2C205,260,204.7,260,204.5,260z"/>
			<path d="M212.1,251.6c-0.7,0.8-1.6,0.9-2.4,0.6c-0.9-0.3-1.5-1.5-1.4-2.3c0.2-1.4,1.1-2,2.2-2c0.2,0,0.4,0,0.5,0
				c0.1,0,0.3-0.2,0.3-0.3c0.1-0.3,0.2-0.5,0.5-0.4c0.3,0,0.5,0.2,0.5,0.5c0.2,1.1,0.5,2.3,0.7,3.4c0,0.1,0.1,0.2,0.1,0.3
				c0,0.3,0.1,0.7-0.3,0.8C212.4,252.2,212.2,252,212.1,251.6z M210.7,248.7c-0.8,0-1.4,0.5-1.4,1.3c0,0.7,0.6,1.5,1.2,1.4
				c0.7,0,1.4-0.5,1.3-1.4C211.7,249.2,211.4,248.6,210.7,248.7z"/>
			<path d="M202.4,247.8c0.8,0.1,1.4,0.2,1.8,0.9c0.3,0.7,0.2,1.4-0.3,2c-0.3,0.3-0.7,0.7-1,0.9c-0.4,0.3-0.4,0.7-0.3,1.1
				c0.1,0.3,0.2,0.7,0.3,1c0,0.3,0,0.6-0.1,0.7c-0.1,0.1-0.5,0.2-0.6,0.1c-0.2-0.1-0.4-0.4-0.4-0.7c-0.2-1.3-0.4-2.5-0.6-3.8
				c0-0.3-0.2-0.6-0.3-0.9c-0.3-0.7-0.1-1.1,0.7-1.3C201.7,247.9,202.1,247.9,202.4,247.8z M202.1,250.8c0.1,0,0.1,0,0.2,0
				c0.3-0.2,0.6-0.4,0.8-0.7c0.3-0.3,0.2-0.8-0.1-1.1c-0.3-0.3-1.1-0.1-1.1,0.2C201.9,249.8,202,250.3,202.1,250.8z"/>
			<path d="M221.5,250.8c-1.7,0-2.6-1.7-2.3-3c0.2-1.2,1.1-1.8,2.2-2.1c0.5-0.1,0.9,0.1,1.1,0.5c0.3,0.5,0.3,1,0,1.4
				c-0.3,0.6-0.9,0.9-1.5,1.1c-0.1,0-0.2,0.1-0.3,0.1c-0.6,0.2-0.6,0.4-0.1,0.8c0.5,0.4,1.5,0.3,1.9-0.3c0-0.1,0.1-0.2,0.2-0.2
				c0.2-0.1,0.5-0.2,0.6-0.1c0.1,0.1,0.2,0.4,0.1,0.6c-0.3,0.6-0.8,0.9-1.4,1C221.8,250.8,221.6,250.8,221.5,250.8z M220.1,248.3
				c0.6-0.2,1.2-0.4,1.6-0.9c0.1-0.1,0.2-0.4,0.1-0.5c-0.1-0.1-0.4-0.2-0.6-0.2C220.6,246.7,220,247.6,220.1,248.3z"/>
			<path d="M230.5,255.3c0.1,0.6,0.6,0.8,1,0.8c0.5,0,1-0.1,1.3-0.6c0.2-0.3,0.3-0.4,0.6-0.3c0.3,0,0.4,0.2,0.3,0.4
				c-0.2,0.8-0.8,1.1-1.5,1.3c-1.6,0.4-2.7-0.8-2.9-2c-0.2-1.5,0.8-2.8,2.3-3c0.4,0,1,0.2,1.1,0.6c0.3,0.6,0.3,1.2-0.2,1.7
				c-0.5,0.4-1,0.7-1.6,1C230.8,255.3,230.7,255.3,230.5,255.3z M230.2,254.4c0,0,0.1,0.1,0.1,0.2c0.4-0.2,0.8-0.3,1.2-0.6
				c0.2-0.1,0.4-0.3,0.5-0.5c0.1-0.2,0-0.4-0.1-0.6c-0.1-0.1-0.4-0.1-0.5,0C230.6,253.1,230.3,253.7,230.2,254.4z"/>
			<path d="M229,247.4c0.4,0.9,1.7,1,2.3,0.1c0.1-0.1,0.3-0.3,0.5-0.3c0.1,0,0.3,0.2,0.4,0.3c0,0.2,0,0.4-0.2,0.6
				c-0.6,0.8-1.5,1-2.4,0.8c-0.8-0.1-1.3-0.7-1.6-1.4c-0.6-1.5,0.2-3,1.6-3.5c0.7-0.2,1.3-0.1,1.6,0.4c0.3,0.6,0.3,1.3-0.3,1.8
				C230.4,246.6,229.7,246.9,229,247.4z M228.9,246.4c0.7-0.2,1.3-0.5,1.6-1.1c0.1-0.1,0-0.3-0.1-0.4c-0.1-0.1-0.3-0.2-0.5-0.2
				c-0.7,0.2-1.1,0.7-1.2,1.4C228.7,246.2,228.8,246.4,228.9,246.4z"/>
			<path d="M215.8,258.4c0,0.5,0.6,1,1.2,0.9c0.4-0.1,0.9-0.2,1.2-0.7c0.1-0.3,0.4-0.4,0.7-0.2c0.3,0.2,0.2,0.5,0,0.8
				c-0.6,0.7-1.4,1-2.2,0.9c-0.9-0.1-1.6-0.6-1.9-1.5c-0.7-1.7,0.4-3.2,2.1-3.6c0.4-0.1,0.8,0.1,1.1,0.5c0.3,0.5,0.3,1,0,1.5
				c-0.3,0.6-0.9,0.9-1.5,1.2C216.2,258.3,216,258.4,215.8,258.4z M217.3,256.5c0-0.5-0.3-0.6-0.6-0.6c-0.6,0.1-1.3,0.9-1.3,1.4
				c0,0.3,0.2,0.4,0.4,0.3c0.5-0.2,0.9-0.5,1.3-0.8C217.3,256.8,217.3,256.6,217.3,256.5z"/>
			<path d="M214.7,247.4c0.4-0.2,0.7-0.4,1-0.5c1.1-0.5,2.1,0,2.3,1.1c0.2,0.8,0.4,1.6,0.5,2.4c0,0.2-0.2,0.5-0.4,0.6
				c-0.2,0.1-0.6,0.1-0.6-0.3c-0.1-0.3,0-0.7-0.1-1c-0.1-0.5-0.2-0.9-0.3-1.4c-0.1-0.5-0.3-0.7-1-0.6c-0.9,0.2-1.3,0.8-1.2,1.2
				c0,0.4,0.1,0.8,0.2,1.2s0.2,0.8,0.2,1.2c0.1,0.4-0.2,0.6-0.5,0.6c-0.3,0-0.5-0.2-0.5-0.5c-0.2-1-0.4-2-0.6-3.1
				c-0.1-0.4-0.2-0.8-0.2-1.1c0-0.2,0.3-0.5,0.5-0.6c0.2-0.1,0.5,0.1,0.5,0.4C214.6,247.1,214.6,247.2,214.7,247.4z"/>
			<path d="M220,254.7c0.4-0.2,0.7-0.4,1-0.5c0.6-0.3,1.3-0.3,1.7,0.2c0.3,0.3,0.5,0.9,0.6,1.4c0.2,0.6,0.3,1.3,0.4,1.9
				c0,0.2-0.1,0.6-0.3,0.6c-0.2,0.1-0.6-0.1-0.6-0.3c-0.1-0.3-0.1-0.7-0.2-1c-0.1-0.5-0.2-1-0.3-1.5c-0.1-0.4-0.5-0.6-0.9-0.5
				c-0.8,0.2-1.4,0.7-1.3,1.2c0,0.4,0.2,0.9,0.2,1.3c0.1,0.4,0.2,0.8,0.2,1.2c0,0.3-0.1,0.5-0.5,0.5c-0.3,0-0.5-0.1-0.6-0.4
				c-0.2-1-0.4-2.1-0.6-3.1c-0.1-0.4-0.2-0.8-0.2-1.1c0-0.3,0.1-0.6,0.5-0.6c0.3,0,0.6,0.1,0.6,0.5
				C219.9,254.4,219.9,254.5,220,254.7z"/>
			<path d="M237,251.2c0,0.5-0.2,0.6-0.5,0.6c-0.6,0-1.1,0.1-1.5,0.6c-0.3,0.3-0.2,0.6,0.2,0.7c0.5,0.1,1,0.1,1.4,0.2
				c0.5,0.1,0.9,0.3,1,0.9c0.1,0.6,0,1.1-0.5,1.4c-0.6,0.3-1.3,0.5-1.9,0.7c-0.4,0.1-0.7-0.2-0.7-0.5c0-0.4,0.2-0.6,0.6-0.5
				c0.6,0.1,1.1-0.1,1.5-0.5c0.3-0.3,0.2-0.6-0.2-0.7c-0.4-0.1-0.8-0.2-1.2-0.2c-0.6,0-1.1-0.3-1.2-0.7c-0.1-0.4,0.2-1.2,0.5-1.5
				c0.6-0.5,1.3-0.7,2-0.9C236.7,250.7,237,251,237,251.2z"/>
			<path d="M226.9,257.8c-1.1,0-1.8-0.3-2.2-1.3c-0.4-1-0.1-1.9,0.5-2.6c0.6-0.7,1.3-1.1,2.2-1.3c0.4-0.1,0.6,0,0.7,0.4
				c0.1,0.3-0.2,0.7-0.6,0.7c-1.2,0.1-1.6,0.5-1.9,1.7c-0.2,0.7,0.3,1.4,1,1.4c0.5,0,1,0.1,1.5-0.4c0.3-0.3,0.8-0.3,1,0
				c0.2,0.3,0.1,0.6-0.3,0.9C228.1,257.6,227.5,257.9,226.9,257.8z"/>
			<path d="M226.1,250c-0.9,0-1.4-0.5-1.6-1.2c-0.1-0.6-0.3-1.2-0.4-1.8c-0.1-0.3-0.2-0.6-0.6-0.6c-0.1,0-0.4-0.2-0.4-0.3
				c0-0.1,0.1-0.4,0.2-0.5c0.3-0.2,0.4-0.4,0.4-0.7c0-0.1,0-0.3,0-0.4c0.1-0.2,0.3-0.4,0.4-0.4c0.1,0,0.3,0.2,0.4,0.3
				c0,0,0,0.1,0,0.1c0.1,0.6,0.3,0.7,0.9,0.5c0.3-0.1,0.5-0.2,0.8-0.3c0.3-0.1,0.5,0.1,0.6,0.3c0.1,0.3-0.1,0.4-0.3,0.5
				c-0.3,0.1-0.6,0.2-0.9,0.2c-0.8,0.1-0.8,0.2-0.7,0.9c0.1,0.5,0.2,1.1,0.4,1.6c0.2,0.6,0.6,0.7,1.1,0.4c0.1-0.1,0.2-0.2,0.3-0.2
				c0.2,0,0.5,0,0.6,0.2c0.2,0.2,0.2,0.5-0.1,0.6C226.9,249.7,226.3,249.9,226.1,250z"/>
			<path d="M209.8,261.4c-0.9,0-1.7-0.3-2.1-1.1c-0.4-0.9-0.2-1.9,0.4-2.6c0.6-0.7,1.3-1.2,2.3-1.4c0.4,0,0.6,0,0.7,0.4
				c0.1,0.3-0.2,0.7-0.6,0.7c-1,0.1-1.6,0.6-1.9,1.6c-0.3,0.8,0.4,1.7,1.4,1.6c0.3,0,0.7-0.3,1-0.5c0.1-0.1,0.2-0.2,0.4-0.2
				c0.3,0,0.6-0.1,0.7,0.3c0,0.2,0,0.4-0.2,0.6C211.5,261.1,210.6,261.4,209.8,261.4z"/>
			<path d="M207,253c0.3-0.3,0.5-0.4,0.7-0.6c0.2-0.2,0.4-0.3,0.7-0.1c0.3,0.2,0.3,0.5,0,0.8c-0.4,0.4-0.9,0.8-1.6,0.7
				c-0.7-0.1-0.9-0.7-1-1.3c-0.4-1.8-0.7-3.5-1-5.3c0-0.3,0-0.6,0.3-0.7c0.4-0.1,0.5,0.1,0.6,0.5c0.3,1.7,0.6,3.3,0.9,5
				C206.6,252.3,206.8,252.6,207,253z"/>
			<path d="M213.3,261c-0.3,0-0.5-0.3-0.5-0.6c0-1.2-0.4-2.4-0.6-3.6c0-0.2,0.2-0.4,0.2-0.6c0.2,0.1,0.5,0.1,0.5,0.3
				c0.1,0.4,0.2,0.8,0.3,1.2c0.2,0.9,0.4,1.8,0.6,2.7C214,260.7,213.8,261,213.3,261z"/>
			<path d="M221.1,243.6c-1-0.3-1.9-0.5-2.8-0.8c-0.8-0.2-0.8-0.2-0.7-1.2c1.1,0.3,2.2,0.6,3.3,1c0.1,0,0.2,0.3,0.2,0.4
				C221.1,243.2,221.1,243.4,221.1,243.6z"/>
			<path d="M211.6,266.4c0,0.6-0.3,0.9-0.8,0.9c-0.5,0-1-0.5-1-1c0-0.6,0.3-1,0.8-1C211.1,265.2,211.6,265.6,211.6,266.4z"/>
			<path d="M212.2,254.1c0.4,0,0.7,0.3,0.7,0.7c0,0.4-0.3,0.6-0.6,0.6c-0.4,0-0.7-0.3-0.7-0.7C211.6,254.3,211.8,254.1,212.2,254.1z
				"/>
			<path class="st4" d="M210.7,248.7c0.7-0.1,1,0.4,1.1,1.3c0,0.8-0.6,1.4-1.3,1.4c-0.6,0-1.2-0.7-1.2-1.4
				C209.3,249.2,209.9,248.7,210.7,248.7z"/>
			<path class="st4" d="M202.1,250.8c-0.1-0.5-0.3-1.1-0.3-1.6c0-0.3,0.8-0.5,1.1-0.2c0.3,0.3,0.4,0.8,0.1,1.1
				c-0.2,0.3-0.5,0.5-0.8,0.7C202.2,250.8,202.2,250.8,202.1,250.8z"/>
			<path class="st4" d="M220.1,248.3c-0.1-0.7,0.5-1.6,1.1-1.7c0.2,0,0.5,0.1,0.6,0.2c0.1,0.1,0,0.4-0.1,0.5
				C221.3,247.9,220.7,248.1,220.1,248.3z"/>
			<path class="st4" d="M230.2,254.4c0.1-0.7,0.4-1.3,1.1-1.5c0.2,0,0.5,0,0.5,0c0.1,0.1,0.1,0.4,0.1,0.6c-0.1,0.2-0.3,0.4-0.5,0.5
				c-0.4,0.2-0.8,0.4-1.2,0.6C230.3,254.5,230.2,254.5,230.2,254.4z"/>
			<path class="st4" d="M228.9,246.4c0-0.1-0.1-0.2-0.1-0.3c0.1-0.7,0.5-1.2,1.2-1.4c0.1,0,0.4,0,0.5,0.2c0.1,0.1,0.1,0.3,0.1,0.4
				C230.1,245.9,229.6,246.2,228.9,246.4z"/>
			<path class="st4" d="M217.3,256.5c0,0.1-0.1,0.3-0.2,0.4c-0.4,0.3-0.9,0.6-1.3,0.8c-0.3,0.1-0.4,0-0.4-0.3c0-0.6,0.7-1.4,1.3-1.4
				C217.1,255.9,217.3,256,217.3,256.5z"/>
		</g>
	</g>
</g>
<g>
	<g>
		<g>
			<path class="st5" d="M44.1,219.8c-0.4,1.2-1.7,2.2-2.6,2.4c-0.6-0.2-1.4-1.5-0.9-2.1C41,219.7,43.3,219.4,44.1,219.8z"/>
			<path class="st5" d="M40.1,220.5c0,0.8,0.2,1.5,0.9,2c-0.6,0.2-1.1,0.3-1.7,0.4c-0.4,0.1-1.2,0.4-1.6,0.2
				c-0.3-0.1-0.5-0.2-0.4-0.6c0.2-0.4,0.9-1,1.4-1.2C39.3,221,39.7,220.8,40.1,220.5z"/>
			<path class="st5" d="M39.8,223.2c-0.3,1.1-2,1.6-2.7,1.9c1-0.9,1-1.2,1.1-1.6C38.8,223.6,39.3,223.4,39.8,223.2z"/>
			<path class="st5" d="M38.4,221.1c-1.1-0.4-2.4,0.5-3,0.8c1.2-0.2,1.5-0.1,2,0C37.6,221.5,38,221.4,38.4,221.1z"/>
		</g>
		<path class="st5" d="M35.6,223.1l-0.9,0l0.9,0.1l-1.3,0.7l1.5-0.2l-0.2,0.5l0.7-0.5c0,0-0.4-0.4-0.1-0.9
			C35.8,222.8,35.6,223.1,35.6,223.1z"/>
		<path class="st5" d="M37.1,222.6c0,0-0.3,0.4,0.1,0.6c-0.4,0.3-0.5,0.4-0.5,0.4s-0.6-0.5-0.2-1.1
			C37.1,222.6,37.1,222.6,37.1,222.6z"/>
	</g>
	<g>
		<path class="st6" d="M46.7,250.7c-0.7-0.4-1.8-0.7-3.4-1.1c-0.6-0.1-1-0.3-1.2-0.4c0,0,0,0-0.1,0c0,0,0,0,0,0
			c0-0.3,0.1-0.5,0.3-0.7c0.2-0.2,0.5-0.3,1-0.3c0.5,0,0.9,0.1,1.2,0.4c0.3,0.2,0.3,0.3,0.4,0.8l3.4,1.3c0.5-1.3,0.3-4-1.5-4.6
			c-1-0.3-1.9-0.5-2.9-0.6c-0.5-0.1-1.1-0.1-1.6,0c-0.8,0.1-1.6,0.2-2.2,0.7c-0.5,0.4-1.1,1-1.3,1.7c0,0.1-0.4,1.4-0.3,1.4l-0.4,0
			c-0.2,0-0.3,0-0.5,0l-0.9,0l0.3,4.5l-2.2-4.6l-3.4,0l0,5.1l-1.9-5.1l-3.6,0l-3.5,8.2l2.6,0l0.4-1.4l2.9,0l0.4,1.4l2.6,0l1.2,0
			l1.2,0l0-4.5l3,4.5l2.8,0l0-0.6c0.8,0.6,2.1,1,3.9,1c1.1,0,2.1-0.1,2.8-0.5c0.8-0.3,1.3-0.8,1.8-1.4c0.4-0.6,0.6-1.3,0.6-2.1
			c0-0.6-0.1-1.2-0.5-1.7C47.9,251.5,47.4,251,46.7,250.7z M25.9,254.2l0.9-2.9l0.9,3L25.9,254.2z M44.7,254.7
			c-0.3,0.2-0.7,0.4-1.2,0.4c-0.7,0-1.2-0.2-1.6-0.7c-0.2-0.3-0.4-0.7-0.4-1.3l-2.1,0.3l-0.1-2.3c0.1,0.1,0.1,0.1,0.2,0.2
			c0.7,0.6,1.8,1.1,3.4,1.5c0.5,0.1,0.9,0.2,1.4,0.4c0.3,0.2,0.9,0.4,0.9,0.8C45.1,254.2,45,254.5,44.7,254.7z"/>
		<path class="st6" d="M44.4,227c-0.1,0.5-0.1,0.9-0.3,1.3c0.1,0,0.1-0.4,0.1-0.5c0.1-0.2,0.1-0.6,0.2-0.8c0.2,0.4,0.5,0.7,0.8,1.1
			c0.2,0.4,0.4,0.8,0.7,1.1c-0.4-0.6-0.7-1.1-1-1.7c-0.1-0.2-0.3-0.4-0.3-0.6c0.5,0.1,0.9,0.2,1.3,0.3c0-0.1-0.2-0.1-0.3-0.1
			c-0.4-0.1-0.7-0.2-1-0.3c0.4-0.2,0.7-0.5,1.1-0.8c0.4-0.2,0.8-0.4,1.1-0.7c-0.8,0.5-1.5,0.9-2.3,1.3c0.1-0.3,0.2-0.6,0.2-0.9
			c0-0.1,0-0.2,0.1-0.3c0.1-0.3,0-0.2,0,0c-0.1,0.4-0.2,0.9-0.3,1.1c-0.5-0.7-1-1.6-1.5-2.2c0.4,0.8,1,1.6,1.3,2.3
			c-0.4-0.1-0.9-0.2-1.3-0.2c0.1,0,0.2,0,0.3,0.1c0.3,0.1,0.8,0.1,1,0.3c-0.7,0.5-1.6,1-2.2,1.5C42.8,227.9,43.7,227.4,44.4,227z"/>
		<path class="st6" d="M43.2,230.5c0.1-0.1,0.2-0.1,0.2-0.3c0-0.1-0.1-0.2-0.2-0.3c-0.1-0.2-0.3-0.3-0.4-0.5
			c-0.1-0.1-0.2-0.3-0.3-0.2c-0.1,0-0.2,0.1-0.3,0.2c-0.6,0.5-1.3,1-1.9,1.5c0.3,0.4,0.6,0.7,0.9,1.1
			C41.9,231.5,42.5,231,43.2,230.5z"/>
		<path class="st6" d="M40.6,232.3c-0.2-0.3-0.5-0.6-0.7-0.9c-0.3,0.2-0.6,0.5-0.9,0.7c0.2,0.3,0.5,0.6,0.7,0.9
			C40,232.8,40.3,232.6,40.6,232.3z"/>
		<path class="st6" d="M18.4,244.7c-0.3-0.5-0.7-1-1.2-1.3c-1.9-1.3-4.4-0.8-5.8,1.1c-1.3,1.9-0.9,4.4,1,5.7c-1.2-1.3-1.3-3.3-0.2-5
			c1.3-1.8,3.7-2.4,5.4-1.3C17.9,244.1,18.2,244.4,18.4,244.7z"/>
		<path class="st6" d="M19.6,243.5c-0.4-0.5-0.8-0.9-1.4-1.3c-2.7-1.8-6.2-1-8,1.6c-1.5,2.2-1,4.6,0.8,6.4c-1.4-1.7-1.6-3.9-0.3-5.9
			c1.8-2.6,5.3-3.4,8-1.6C19.1,242.9,19.4,243.2,19.6,243.5z"/>
		<path class="st6" d="M16.4,247.6c0.1,0,0.3-0.1,0.3-0.2c0-0.1-0.1-0.3-0.2-0.3c-0.1,0-0.3,0.1-0.3,0.2
			C16.2,247.4,16.2,247.6,16.4,247.6z"/>
		<path class="st6" d="M14.7,247c-0.1,0-0.3,0.1-0.3,0.2c0,0.1,0.1,0.3,0.2,0.3c0.2,0,0.3-0.1,0.3-0.2C15,247.2,14.9,247,14.7,247z"
			/>
		<path class="st6" d="M44.4,222.6c4.2,2.5,6.6,7.5,5.5,12.6c-0.8,3.9-3.5,6.8-6.9,8.3c0.5-0.3,1-0.7,1.5-1.1c0.5-0.4,1-0.9,1.4-1.4
			c0.4-0.4,0.7-0.9,1-1.4c0.4-0.6,0.6-1.2,0.9-1.8c0.2-0.5,0.4-1,0.5-1.5c-0.1,0.2-0.4,0.5-0.5,0.7c-0.2,0.2-0.3,0.5-0.5,0.7
			c-0.2,0.2-0.4,0.4-0.6,0.7c-0.6,0.7-1.2,1.4-2,1.9c-0.3,0.3-0.7,0.6-1.1,0.8c-0.9,0.5-1.8,1-2.7,1.4c-0.1-1.2-0.2-2.6-1.1-2.7
			c-0.4,0-0.7,0.2-1,0.5c0,0.1-0.1,0.1-0.1,0.1c-0.2,0.2-0.3,0.3-0.5,0.4c0.1-0.1,0.1-0.4,0.1-0.5c0-0.2,0.1-0.4,0.1-0.6
			c0.1-0.2,0.1-0.5,0.2-0.6c0,0,0.1-0.1,0.2-0.1c0,0,0.1-0.1,0.2-0.1c0,0,0,0,0,0c0.1,0,0.5-0.5,0.6-0.6c0.2-0.2,0.4-0.4,0.6-0.6
			c0.4-0.3,1-0.7,1-1.3c0,0,0,0,0,0c0-0.1,0-0.1,0-0.2c0-0.1,0-0.2,0-0.3c0-0.1-0.1-0.1-0.1-0.2c0,0-0.1-0.1-0.1-0.1
			c-0.5-0.4-1-0.7-1.7-0.8c0,0,0,0,0,0c0,0-0.1,0-0.1,0c-0.1,0-0.1,0-0.2,0c-0.2,0-0.2-0.1-0.2-0.3c0,0,0-0.1,0-0.1c0,0,0,0,0,0
			c0-0.2-0.1-0.1-0.1-0.2c0,0-0.1,0-0.1,0c0,0,0,0-0.1,0c0,0-0.1,0-0.1,0c0,0,0,0,0,0c0.3-0.2,0.6-0.4,0.8-0.6
			c-0.2-0.2-0.4-0.5-0.5-0.7c-0.1,0.1-0.3,0.2-0.4,0.3c0,0,0,0-0.1,0c-0.1,0.1-0.2,0-0.3,0c-0.3,0-0.6,0.1-0.7,0.4
			c-0.2-0.2-0.1-0.1-0.5-0.1c0-0.1,0.1-0.1,0.2-0.1c-0.1-0.1-0.6-0.2-0.7-0.1c0,0,0,0,0,0c0,0-0.1,0-0.1,0c0,0,0,0,0,0
			c-0.5,0.1-0.9,0.3-1.3,0.6c0,0.1-0.1,0.1-0.1,0.2c0,0,0,0-0.1,0.1c0,0.1-0.1,0.3-0.2,0.4c0,0,0,0,0,0c0,0.1-0.1,0.2-0.1,0.3
			c0,0,0,0,0,0c-0.2,0.9,0,2,0.7,2.4c-0.1,0-0.1,1.1-0.1,1.2c0,0.2-0.1,0.3-0.1,0.5c0,0.2,0,0.5,0,0.8c0,0.4-0.1,0.8-0.3,1.2
			c-0.2,0.4-0.4,0.8-0.6,1.1c-0.1,0.1-0.2,0.3-0.3,0.4c-0.6-0.3-1.2-0.6-1.8-0.9c-0.7-0.5-1.4-1-2-1.5c0-1.7,0-3.9,0-5.3
			c0-0.8,0-1.7-0.1-2.5c0-0.6,0-1.2-0.1-1.8c0-0.2,0-0.4,0.1-0.6c0.1,0,0.1,0.1,0.1,0.2c0,0.1,0.1,0.1,0.1,0.2
			c0.2,0.4,0.3,0.8,0.5,1.3c0.3,0.9,0.6,1.8,0.9,2.7c0.2,0.6,0.4,1.2,0.5,1.8c0.1,0.3,0.1,0.5,0.2,0.8c0,0,0,0.1,0.1,0.1
			c0-0.3-0.1-0.6-0.2-0.9c-0.2-0.9-0.5-1.8-0.7-2.7c-0.2-0.7-0.5-1.4-0.7-2.1c-0.1-0.4-0.2-0.7-0.3-1.1c0-0.1-0.1-0.2,0-0.3
			c0-0.1,0.1-0.2,0.1-0.3c0.7-0.6,1.3-1.3,1.9-2c0.1-0.1,0.2-0.2,0.2-0.4c-0.1,0-0.1,0-0.2,0.1c0,0-0.1,0.1-0.1,0.1
			c-0.4,0.3-0.9,0.6-1.3,1c-0.2,0.1-0.4,0.3-0.5,0.4c0,0.1-0.1,0.2-0.2,0.3c0,0.1-0.1,0.3-0.2,0.3c-0.1,0-0.3-0.2-0.4-0.3
			c-0.3-0.3-0.7-0.6-1-0.9c-0.4-0.3-0.8-0.7-1.2-1c0.1-0.2,0.3-0.5,0.4-0.7c1.7-2.8,4.2-4.8,7.2-5.5c-3.6,0.5-7,2.5-9.1,5.8
			c-1.5,2.4-2.1,5.2-1.8,7.9c-2.4-2-5.5-3.1-8.9-2.8c-6.5,0.7-11.1,6.5-10.5,12.9c0.1,1.4,0.5,2.8,1.2,4c1,2.1,2.7,3.8,4.7,5
			c0.2,0.8,0.6,1.9,0.8,2.5c0.4,0.1,1.1,0.3,1.6,0.5c0,0.2,0,0.2,0.1,0.4c0.6,0.4,1.4,0.7,1.7,0.1c-0.5-0.3-0.7,0.2-1.2-0.1
			c-0.5-0.3-0.1-1.5,0.5-1.4c0.5,0.1,0.4,0.6,1,0.6c0-0.7-0.7-0.9-1.5-0.9c-0.2,0.1-0.3,0.4-0.5,0.4c-1-0.2-1-0.8-1.2-1.4
			c0.7,0.3,1.5,0.5,2.3,0.7c0.6,0.1,1.2,0.2,1.8,0.2c0.5,0,1.1,0,1.6-0.1c0.7-0.1,1.2-0.2,1.9-0.4c0.5-0.1,1-0.3,1.4-0.5
			c-0.2,0.1-0.6,0-0.8,0c-0.3,0-0.5,0-0.8,0c-0.1,0-0.3,0-0.4,0l0-0.1c0.1-0.7,0.1-1.7,0.1-2.5c0.1,0,0.3,0.1,0.4,0.1
			c0.2,1,1.8,0.5,1.7-0.5c0.6-0.6,1.3-1.2,1.9-1.9c-0.1-0.5-0.3-0.9-0.4-1.5c0.2-0.2,0.4-0.3,0.6-0.5c0-0.2,0-0.3,0-0.5
			c0.3,1.7,0,3.5-1,5c-0.4,0.6-0.9,1.1-1.4,1.5c0.9-0.6,1.8-1.4,2.4-2.3c2.3-3.5,1.5-8.2-1.8-10.5c-3.3-2.3-7.9-1.3-10.2,2.2
			c2.3-2.3,6-2.7,8.9-0.7c1.4,1,2.4,2.4,2.9,3.9c-0.1-0.2-0.3-0.3-0.6-0.3c-0.1,0.7,0.5,0.6,0.5,1.2c0,0.7-1.5,1-1.7,0.4
			c-0.2-0.6,0.4-0.7,0.1-1.3c-0.8,0.4-0.6,1.3-0.2,2c0.2,0.1,0.6,0.1,0.7,0.3c0.4,1.3-0.7,1.7-1.2,2.4c-0.2-0.1-0.6,0-0.8,0.1
			c-1.1-0.5-0.6,0-0.8-0.7c-0.4-0.2-1.3,0.1-1.8,0c0,0,0-0.3,0-0.4c0.2-0.1,0.6,0,0.8,0c0.2-0.1,0.2-0.6,0.2-1c0.1,0,0.3,0,0.3,0
			h0.1v-1.2h-0.4c0-0.4,0.1-0.8-0.1-1c-0.4-0.2-1,0.1-1.5-0.1l0-0.5c-0.1,0-0.2,0-0.2,0c0,0-0.1,0-0.1,0l0,0.5
			c-0.5,0.1-1.9-0.2-2.2,0.1c-0.2,0.2,0,0.6-0.1,1H13v1.2h0.5c0,0.2,0,0.5,0,0.7c0,0.1,0,0.1,0.1,0.2c0.2,0.2,1.2,0,1.5,0.2
			c0,0,0,0.3,0,0.4c-0.6,0.1-1.5-0.4-1.9-0.1c-0.1,0.1-0.1,0.1-0.2,0.2c0,0,0,0,0,0.1c-0.6,0.8-1,1.4-1.4,1.8
			c-0.3-0.2-0.6-0.3-0.9-0.5c-1.9-1.7-3.2-4.2-3.5-7.1c-0.6-5.9,3-11,9-11.6c2.8-0.3,5.4,0.3,7.5,1.7c0.4,3.7,2.4,7.2,5.9,9.4
			c1.3,0.8,2.7,1.4,4.2,1.7c2,0.4,4,0.3,6-0.2c5.4,0,10.3-3.7,11.5-9.2C52.3,230.3,49.4,224.9,44.4,222.6z M21.9,248.6
			c0.2,0,0.3,0.1,0.4,0.2c0,0.2-0.1,0.3-0.3,0.4c-0.2,0-0.3-0.1-0.4-0.2C21.6,248.8,21.7,248.6,21.9,248.6z M19.8,250.7
			c0.2,0,0.4,0.1,0.4,0.3c0,0.2-0.1,0.4-0.3,0.4c-0.2,0-0.4-0.1-0.4-0.3C19.4,251,19.6,250.8,19.8,250.7z M11.6,255
			c0.2,0,0.2,0.2,0.2,0.4c0,0.2-0.2,0.2-0.4,0.2c-0.2,0-0.2-0.2-0.2-0.4C11.3,255,11.4,254.9,11.6,255z M16.3,246.7
			c1.1-0.3,0.7,1.6-0.2,1C15.8,247.5,15.9,246.9,16.3,246.7z M14.5,246.6c0.4-0.1,0.7,0.1,0.7,0.5c0,0.3-0.3,0.6-0.6,0.6
			C14,247.7,13.9,246.8,14.5,246.6z M14.7,248.7c-0.1-0.2,0.1-0.3,0.2-0.3c0.2-0.1,0.7,0,1.1,0c0.4,0,0.8,0,0.8,0.3
			c0,0.3-0.5,0.3-1,0.3C15.4,248.9,14.8,249,14.7,248.7z M13.1,251.5c0,0.3,0,0.7,0,1c-0.3-0.1-0.5-0.2-0.7-0.3
			C12.6,252,12.8,251.7,13.1,251.5z M26.8,226.9c0.3,0.3,0.6,0.6,0.9,0.9c0.3,0.3,0.6,0.6,1,0.9c0.1,0.1,0.2,0.1,0.3,0.2
			c0,0,0.1,0.1,0.1,0.1c-0.1,0-0.2,0.1-0.3,0.1c-0.1,0-0.2-0.2-0.3-0.1c-0.1,0-0.1,0.2-0.2,0.3c0,0.1-0.1,0.2-0.1,0.4
			c0,0,0.1,0.1,0.1,0.1c0.1,0,0.1,0.1,0.2,0.1c0.1,0,0.2-0.1,0.3-0.1c-0.1,1.6-0.2,3.2-0.2,4.8c-0.1,1.2-0.1,2.7-0.2,4
			C25.5,235.3,24.8,231,26.8,226.9z M38.4,235.4C38.4,235.4,38.4,235.4,38.4,235.4c0.1,0,0.2,0,0.3,0.1c0,0,0,0,0.1,0
			c0.1,0,0.1,0,0.2,0.1c0,0,0,0,0,0c0,0,0,0,0,0c0,0,0.2,0.2,0.2,0.3c0.2,0.6-0.7,1-1.2,0.8c0.3-0.6,0.1-1.2,0-1.6
			C38,235.1,38.2,235.2,38.4,235.4z"/>
		<path class="st6" d="M15.4,244.9c0,0.2,0.1,0.5,0.3,0.5c0.2,0,0.5-0.1,0.5-0.3c0-0.2-0.1-0.5-0.3-0.5
			C15.7,244.5,15.5,244.7,15.4,244.9z"/>
	</g>
</g>
<g>
</g>
<g>
</g>
<g>
</g>
<g>
</g>
<g>
</g>
<g>
</g>
</svg>
